<?xml version="1.0" encoding="UTF-8"?> <svg xmlns="http://www.w3.org/2000/svg" xmlns:xlink="http://www.w3.org/1999/xlink" id="coding_Formation_Pro" data-name="coding Formation Pro" viewBox="0 0 700 700"><defs><style>.cls-1,.cls-11,.cls-17,.cls-2,.cls-21,.cls-22{fill:#fff;}.cls-15,.cls-17,.cls-18,.cls-2{stroke:#33058d;}.cls-11,.cls-15,.cls-2{stroke-miterlimit:10;}.cls-3{fill:#5ae4a7;}.cls-4{opacity:0.7;}.cls-5{fill:#b3f0e8;}.cls-6{fill:#1a2e35;}.cls-10,.cls-6,.cls-7{opacity:0.2;}.cls-7,.cls-8{fill:#33058d;}.cls-9{fill:#0aa6ac;}.cls-11{stroke:#5b37a3;}.cls-12{clip-path:url(#clip-path);}.cls-13,.cls-21{opacity:0.5;}.cls-14,.cls-15,.cls-18{fill:none;}.cls-16{clip-path:url(#clip-path-2);}.cls-17,.cls-18{stroke-linecap:round;stroke-linejoin:round;}.cls-19{fill:#5b37a3;}.cls-20{fill:#00cfb4;}.cls-22{opacity:0.1;}.cls-23{clip-path:url(#clip-path-3);}</style><clipPath id="clip-path"><path class="cls-1" d="M491.29,556.43l.17-64c.7-2.59,1.25-12.09,2.74-18.7,2.51-11.09-7.39-24.47-8.09-24.9-2.77-1.73-8.67-1.7-8.67-1.7s-5.75-6.62-11-8.71A25.75,25.75,0,0,0,455.39,437s-6.58-5.55-13.17-8a10.85,10.85,0,0,0-11.09,2.09l-6.48,10.09a7.54,7.54,0,0,0,.89,9.43c3.09,3.06,7.06,1.63,9.06,1.63,2.77,0,3.81-3.13,3.81-3.13s.68,16.3,0,18.38h0c-.71,2.08-5.88,6.93-5.88,6.93l-17.32-22.93a167.45,167.45,0,0,1-15.61-25.74,11.8,11.8,0,0,0-1.95-3c-3-3.44-9.54-4.45-11.23,1.92a12.48,12.48,0,0,0,.28,6.13c7.25,21.4,16.47,37.57,24.88,54.43,5,10,3.15,9.89,5.64,14.41-.29.2-.16.57-.46.76-1.23,4.86-2.08,9.74-3.3,14.61-1.18-5.84-2.76-12.36-5.55-17.63a39.76,39.76,0,0,0,.76-10.31,13.6,13.6,0,0,0-4.29-9.14,8.94,8.94,0,0,0-5.05-2,5.27,5.27,0,0,0-5.57,4.5,52.16,52.16,0,0,1-1.45,7.84,78.83,78.83,0,0,1-4,9.84c0,6.46,4,5.41,6.91,31.39,2.26,20.24,28.32,33.61,42.51,48.22l15.12,47.56a293.59,293.59,0,0,0,50.47-26.49Z"></path></clipPath><clipPath id="clip-path-2"><path class="cls-1" d="M331.34,481.06c-.62-2.87-4.7-2.45-4.7-2.45-13.68.8-15.52,22.25-15.52,22.25l-4.9,14.68-1.53-22.09.15-28.48s4.14-27.25,2.3-31.52a6.23,6.23,0,0,0-5.66-4.14c-8-2-8.43,9.48-8.43,9.48l-6.72,23.43-2.76,25.27-2.29-1.23s-1.09-26.8-.62-27.25,3.22-18.53,3.22-18.53,1.52-3.36,3.36-7.65a9.29,9.29,0,0,0,0-7.66c-3.22-6.58-9.94-3.51-11.32,0a101.61,101.61,0,0,1-5.52,10.41l-7.67,21c.3,4.74-2.43,28.17-2.43,28.17l-2.76-1.26-4.44-13.75,3.37-14.09s7.35-8.1,6.12-12.86-7.49-3.36-7.49-3.36l-12.55,15h-3.69l-8.72,11a69.82,69.82,0,0,0-2,36.61l2,9.31v60.18s-6,9.63-6,10.55c0,.42-2.46,8-5.9,17.5,15,8.84,27.95,15.67,37.1,19.28,4.31,1.7,8.67,3.33,13,4.88,5.5-15.45,11.93-32,15.48-35.84,7-7.65,20.81-22.35,20.81-22.35s15.66-25.15,17.49-33.52c1.52-6.86,5.19-19.32,6.46-23.59a8.39,8.39,0,0,0,.36-3c-.11-2.26-.33-6.65-.33-10.52C328.67,489.42,331.94,483.91,331.34,481.06Z"></path></clipPath><clipPath id="clip-path-3"><path class="cls-2" d="M639.49,453.11a103.37,103.37,0,0,1-1.41,17.18c-4.19,25-17.36,43.33-33,43.33a20.49,20.49,0,0,1-4.14-.43c-17-3.61-30.21-29.13-30.21-60.08,0-33.42,15.39-45.24,34.35-45.24S639.49,419.69,639.49,453.11Z"></path></clipPath></defs><g id="Background_Simple_-_copie" data-name="Background Simple - copie"><path class="cls-3" d="M685.37,349.89a173.2,173.2,0,0,1-4.82,41.24c-1.08,4.43-2.39,8.84-3.88,13.19-.43,1.24-.87,2.49-1.33,3.72-.38,1-.77,2-1.16,3-.11.28-.21.55-.33.83-.42,1-.84,2.08-1.29,3.11-.07.16-.14.34-.22.51-.43,1-.88,2-1.33,3-.2.44-.4.88-.61,1.31-.4.9-.82,1.78-1.26,2.67s-.91,1.87-1.37,2.79c-.18.33-.33.67-.51,1-.4.79-.82,1.59-1.23,2.39-.33.62-.67,1.23-1,1.83q-2.29,4.26-4.82,8.4c-.68,1.13-1.38,2.26-2.08,3.38-.16.27-.34.55-.51.82-.81,1.27-1.64,2.55-2.48,3.82-.68,1-1.36,2.06-2.07,3.09s-1.21,1.78-1.84,2.68l-.4.56c-.64.93-1.31,1.85-2,2.78-.81,1.14-1.63,2.26-2.46,3.39-.17.23-.33.46-.5.68-.95,1.29-1.92,2.56-2.87,3.82-.58.75-1.16,1.52-1.75,2.26-1,1.38-2.12,2.74-3.2,4.1s-2.07,2.59-3.13,3.88l-.35.42c-1,1.29-2.08,2.56-3.15,3.83-.31.4-.64.79-1,1.16q-1.46,1.77-2.94,3.51-4.26,5-8.59,10-8.79,10.11-18,20.11c-5.09,5.5-10.24,11-15.5,16.35-25.22,25.9-52.53,50.06-82.22,69.32-3.69,2.39-7.41,4.72-11.18,6.94-1.37.81-2.75,1.62-4.13,2.41l-.71.41q-2.11,1.22-4.27,2.39c-1.46.81-2.92,1.61-4.4,2.37l-2,1q-4.32,2.27-8.73,4.35c-1.58.75-3.15,1.48-4.75,2.18s-2.94,1.32-4.41,2l-1.81.77c-1.35.58-2.71,1.13-4.07,1.68-2.62,1-5.27,2.07-7.94,3-1,.38-2,.74-3.06,1.1l-1.74.6-2.87.94-2.49.79-.09,0c-1.63.51-3.27,1-4.9,1.48-2.6.75-5.19,1.45-7.79,2.11-1.73.44-3.45.84-5.19,1.23s-3.27.73-4.92,1.08l-.39.07q-2.56.52-5.16,1c-.88.16-1.75.31-2.63.45s-1.77.29-2.67.42-1.6.25-2.4.35l-2.92.4a224.32,224.32,0,0,1-30.94,1.76c-.63,0-1.24,0-1.86,0a258,258,0,0,1-28-2.1l-2.05-.28-3.51-.49-2.74-.43c-3.87-.61-7.7-1.31-11.54-2.09-.85-.16-1.69-.33-2.53-.52-2.58-.54-5.17-1.11-7.74-1.72q-2.58-.62-5.14-1.26l-2.56-.67-2.56-.68c-3.4-.91-6.79-1.9-10.17-2.92q-5.88-1.79-11.69-3.78c-1.41-.48-2.83-1-4.23-1.47-4.36-1.54-8.72-3.18-13-4.87l-2.36-1c-.62-.26-1.24-.54-1.9-.83l-1.27-.57q-4.22-1.92-9.15-4.45l-1.68-.87c-2-1.06-4.11-2.17-6.27-3.36-4.53-2.49-9.38-5.24-14.48-8.24-57.93-34.08-146.61-98.05-167.43-122.3-1.06-1.23-2.09-2.47-3.12-3.73-.79-1-1.59-2-2.36-3s-1.4-1.83-2.08-2.77-1.2-1.63-1.78-2.47-1.1-1.55-1.64-2.33a1.74,1.74,0,0,0-.11-.18c-.65-1-1.31-1.94-1.94-2.92S36.59,458,36,457.05c-.29-.45-.56-.91-.84-1.38-.65-1.07-1.29-2.14-1.91-3.21v0c-.67-1.19-1.34-2.37-2-3.58q-1.7-3.14-3.23-6.35l-.78-1.67a133.9,133.9,0,0,1-5.41-13.45c-.57-1.59-1.07-3.2-1.57-4.8-.62-2.08-1.18-4.16-1.71-6.25-.1-.41-.2-.82-.29-1.24-.26-1.09-.5-2.19-.72-3.29-.33-1.53-.61-3.07-.87-4.62-.06-.37-.13-.75-.17-1.13-.13-.79-.25-1.59-.35-2.4s-.25-1.92-.35-2.88c0-.33-.07-.65-.1-1-.08-.83-.14-1.65-.22-2.46a1.21,1.21,0,0,0,0-.2c-.07-1-.13-2-.16-2.93a2.62,2.62,0,0,1,0-.27q-.08-1.54-.09-3.09c0-.38,0-.76,0-1.15,0-.6,0-1.2,0-1.8,0-1.51.06-3,.15-4.53.06-1,.13-2,.22-2.94q.26-2.91.69-5.81c.15-1,.31-2,.49-2.94.35-1.95.77-3.91,1.26-5.86a105.84,105.84,0,0,1,10.2-25.47,9.68,9.68,0,0,1,.49-.88c7.8-13.74,18.42-25.94,30.38-37.23Q61,300.42,63,298.67c1.37-1.26,2.76-2.5,4.17-3.74l.26-.23q3.36-3,6.82-5.84c3.54-3,7.15-5.88,10.78-8.77.12-.1.25-.19.36-.29,3.12-2.46,6.26-4.91,9.39-7.34,4.92-3.81,9.86-7.6,14.69-11.38q1.94-1.5,3.83-3,2.1-1.65,4.15-3.3A310.68,310.68,0,0,0,152,222q3-3.3,6-6.65c.94-1.07,1.88-2.12,2.81-3.2C174,197.1,186.3,181.86,200,167.49q4.89-5.16,10-10.12c2.9-2.77,5.84-5.49,8.89-8.16,3.49-3.07,7.08-6.06,10.85-9,5.14-4,10.55-7.83,16.35-11.49,1.41-.92,2.82-1.8,4.24-2.67,144.37-89.72,250.63-60.43,321.52,0,5.34,4.53,10.49,9.27,15.43,14.16,3,2.91,5.92,5.92,8.75,9,.31.32.6.66.91,1q3,3.18,5.79,6.39l1.66,1.91c.83,1,1.65,1.91,2.47,2.88,1,1.17,2,2.36,3,3.55.63.75,1.23,1.5,1.84,2.26,4,4.86,7.72,9.8,11.31,14.77.72,1,1.43,2,2.14,3,5,7,9.56,14,13.83,21l1.81,3c.61,1,1.2,2,1.78,3s1.16,2,1.72,3,1.15,2,1.7,3l1.65,3c.56,1,1.1,2,1.61,2.94l1.57,2.94c.53,1,1,2,1.54,2.93s1,1.94,1.49,2.89l1.45,2.9c1.9,3.82,3.69,7.6,5.4,11.32.84,1.88,1.68,3.75,2.48,5.59,3.6,8.28,6.68,16.2,9.2,23.57a.19.19,0,0,1,0,.1c.25.71.48,1.41.71,2.1s.48,1.44.71,2.14.36,1.09.52,1.64c.26.81.52,1.62.77,2.45s.54,1.76.78,2.65c.48,1.62.94,3.24,1.38,4.88.37,1.37.74,2.75,1.08,4.14.08.26.15.5.21.76s.1.44.16.66c.2.81.4,1.62.59,2.44q.78,3.24,1.45,6.5c.24,1.19.49,2.36.71,3.55,0,.22.08.44.13.67.21,1.11.42,2.23.6,3.34.27,1.49.51,3,.73,4.49.19,1.13.35,2.27.51,3.42a4.61,4.61,0,0,0,.07.5c.1.76.2,1.52.29,2.29s.16,1.28.23,1.9c.26,2.3.49,4.59.68,6.89l.13,1.56c.06.87.12,1.76.17,2.63s.12,1.94.16,2.92c.05.75.08,1.49.1,2.24,0,1.1.08,2.22.09,3.32C685.36,347.31,685.37,348.6,685.37,349.89Z"></path><g class="cls-4"><path class="cls-5" d="M685.37,349.89a173.2,173.2,0,0,1-4.82,41.24c-1.08,4.43-2.39,8.84-3.88,13.19-.43,1.24-.87,2.49-1.33,3.72-.38,1-.77,2-1.16,3-.11.28-.21.55-.33.83-.42,1-.84,2.08-1.29,3.11-.07.16-.14.34-.22.51-.43,1-.88,2-1.33,3-.2.44-.4.88-.61,1.31-.4.9-.82,1.78-1.26,2.67s-.91,1.87-1.37,2.79c-.18.33-.33.67-.51,1-.4.79-.82,1.59-1.23,2.39-.33.62-.67,1.23-1,1.83q-2.29,4.26-4.82,8.4c-.68,1.13-1.38,2.26-2.08,3.38-.16.27-.34.55-.51.82-.81,1.27-1.64,2.55-2.48,3.82-.68,1-1.36,2.06-2.07,3.09s-1.21,1.78-1.84,2.68l-.4.56c-.64.93-1.31,1.85-2,2.78-.81,1.14-1.63,2.26-2.46,3.39-.17.23-.33.46-.5.68-.95,1.29-1.92,2.56-2.87,3.82-.58.75-1.16,1.52-1.75,2.26-1,1.38-2.12,2.74-3.2,4.1s-2.07,2.59-3.13,3.88l-.35.42c-1,1.29-2.08,2.56-3.15,3.83-.31.4-.64.79-1,1.16q-1.46,1.77-2.94,3.51-4.26,5-8.59,10-8.79,10.11-18,20.11c-5.09,5.5-10.24,11-15.5,16.35-25.22,25.9-52.53,50.06-82.22,69.32-3.69,2.39-7.41,4.72-11.18,6.94-1.37.81-2.75,1.62-4.13,2.41l-.71.41q-2.11,1.22-4.27,2.39c-1.46.81-2.92,1.61-4.4,2.37l-2,1q-4.32,2.27-8.73,4.35c-1.58.75-3.15,1.48-4.75,2.18s-2.94,1.32-4.41,2l-1.81.77c-1.35.58-2.71,1.13-4.07,1.68-2.62,1-5.27,2.07-7.94,3-1,.38-2,.74-3.06,1.1l-1.74.6-2.87.94-2.49.79-.09,0c-1.63.51-3.27,1-4.9,1.48-2.6.75-5.19,1.45-7.79,2.11-1.73.44-3.45.84-5.19,1.23s-3.27.73-4.92,1.08l-.39.07q-2.56.52-5.16,1c-.88.16-1.75.31-2.63.45s-1.77.29-2.67.42-1.6.25-2.4.35l-2.92.4a224.32,224.32,0,0,1-30.94,1.76c-.63,0-1.24,0-1.86,0a258,258,0,0,1-28-2.1l-2.05-.28-3.51-.49-2.74-.43c-3.87-.61-7.7-1.31-11.54-2.09-.85-.16-1.69-.33-2.53-.52-2.58-.54-5.17-1.11-7.74-1.72q-2.58-.62-5.14-1.26l-2.56-.67-2.56-.68c-3.4-.91-6.79-1.9-10.17-2.92q-5.88-1.79-11.69-3.78c-1.41-.48-2.83-1-4.23-1.47-4.36-1.54-8.72-3.18-13-4.87l-2.36-1c-.62-.26-1.24-.54-1.9-.83l-1.27-.57q-4.22-1.92-9.15-4.45l-1.68-.87c-2-1.06-4.11-2.17-6.27-3.36-4.53-2.49-9.38-5.24-14.48-8.24-57.93-34.08-146.61-98.05-167.43-122.3-1.06-1.23-2.09-2.47-3.12-3.73-.79-1-1.59-2-2.36-3s-1.4-1.83-2.08-2.77-1.2-1.63-1.78-2.47-1.1-1.55-1.64-2.33a1.74,1.74,0,0,0-.11-.18c-.65-1-1.31-1.94-1.94-2.92S36.59,458,36,457.05c-.29-.45-.56-.91-.84-1.38-.65-1.07-1.29-2.14-1.91-3.21v0c-.67-1.19-1.34-2.37-2-3.58q-1.7-3.14-3.23-6.35l-.78-1.67a133.9,133.9,0,0,1-5.41-13.45c-.57-1.59-1.07-3.2-1.57-4.8-.62-2.08-1.18-4.16-1.71-6.25-.1-.41-.2-.82-.29-1.24-.26-1.09-.5-2.19-.72-3.29q-.5-2.3-.87-4.62c-.06-.37-.13-.75-.17-1.13-.13-.79-.25-1.59-.35-2.4s-.25-1.92-.35-2.88c0-.33-.07-.65-.1-1-.08-.83-.14-1.65-.22-2.46a1.21,1.21,0,0,0,0-.2c-.07-1-.13-2-.16-2.93a2.62,2.62,0,0,1,0-.27q-.08-1.54-.09-3.09-.06-3.75.16-7.48c.06-1,.13-2,.22-2.94q.26-2.91.69-5.81c.15-1,.31-2,.49-2.94.35-1.95.77-3.91,1.26-5.86a105.84,105.84,0,0,1,10.2-25.47,9.68,9.68,0,0,1,.49-.88c7.8-13.74,18.42-25.94,30.38-37.23.68-.65,1.36-1.29,2-1.92L63,298.67c1.37-1.26,2.76-2.5,4.17-3.74l.26-.23q3.36-3,6.82-5.84c3.54-3,7.15-5.88,10.78-8.77.12-.1.25-.19.36-.29,3.12-2.46,6.26-4.91,9.39-7.34l4.72-3.65c3.34-2.58,6.69-5.15,10-7.73q1.94-1.5,3.83-3,2.1-1.65,4.15-3.3A310.68,310.68,0,0,0,152,222q3-3.3,6-6.65c.94-1.07,1.88-2.12,2.81-3.2C174,197.1,186.3,181.86,200,167.49q4.89-5.16,10-10.12c2.9-2.77,5.84-5.49,8.89-8.16,3.49-3.07,7.08-6.06,10.85-9,5.14-4,10.55-7.83,16.35-11.49,1.41-.92,2.82-1.8,4.24-2.67,144.37-89.72,250.63-60.43,321.52,0,5.34,4.53,10.49,9.27,15.43,14.16,3,2.91,5.92,5.92,8.75,9,.31.32.6.66.91,1q3,3.18,5.79,6.39l1.66,1.91c.83,1,1.65,1.91,2.47,2.88,1,1.17,2,2.36,3,3.55.63.75,1.23,1.5,1.84,2.26,4,4.86,7.72,9.8,11.31,14.77.72,1,1.43,2,2.14,3,5,7,9.56,14,13.83,21l1.81,3c.61,1,1.2,2,1.78,3s1.16,2,1.72,3,1.15,2,1.7,3l1.65,3c.56,1,1.1,2,1.61,2.94l1.57,2.94c.53,1,1,2,1.54,2.93s1,1.94,1.49,2.89l1.45,2.9q2.87,5.73,5.4,11.32c.84,1.88,1.68,3.75,2.48,5.59,3.6,8.28,6.68,16.2,9.2,23.57a.19.19,0,0,1,0,.1c.25.71.48,1.41.71,2.1s.48,1.44.71,2.14.36,1.09.52,1.64c.26.81.52,1.62.77,2.45s.54,1.76.78,2.65c.48,1.62.94,3.24,1.38,4.88.37,1.37.74,2.75,1.08,4.14.08.26.15.5.21.76s.1.44.16.66c.2.81.4,1.62.59,2.44q.78,3.24,1.45,6.5c.24,1.19.49,2.36.71,3.55,0,.22.08.44.13.67.21,1.11.42,2.23.6,3.34.27,1.49.51,3,.73,4.49.19,1.13.35,2.27.51,3.42a4.61,4.61,0,0,0,.07.5c.1.76.2,1.52.29,2.29s.16,1.28.23,1.9c.26,2.3.49,4.59.68,6.89l.13,1.56c.06.87.12,1.76.17,2.63s.12,1.94.16,2.92c.05.75.08,1.49.1,2.24,0,1.1.08,2.22.09,3.32C685.36,347.31,685.37,348.6,685.37,349.89Z"></path></g></g><g id="Plants_-_copie" data-name="Plants - copie"><path class="cls-6" d="M34.43,373.68c-.29-.19-.21-.32,0,0Z"></path><path class="cls-7" d="M169.85,360.91a26.51,26.51,0,0,1-18.2,20.95L148.06,383c-12.91,18.29-35.56,26.09-54.86,14.76l-5.64-3.32L71.75,375.68l-.19,0c-5,1-10.67.28-14.38-3.26a5.17,5.17,0,0,1-7.34,3.33,5.17,5.17,0,0,1-.64-8c-3.18,2.81-8.11,1.52-11.18-1.55a96.57,96.57,0,0,1,2.83-25,101.55,101.55,0,0,1,5-14.85A104.35,104.35,0,0,1,51,315.71c.15-.29.32-.6.49-.89a127,127,0,0,1,9.63-14.5L63,298.67c1.37-1.26,2.76-2.5,4.17-3.74l.26-.23q3.36-3,6.82-5.84c3.54-3,7.15-5.88,10.78-8.77.12-.1.25-.19.36-.29,3.12-2.46,6.26-4.91,9.39-7.34l4.72-3.65a13.22,13.22,0,0,1,2.78.65c3.86,1.35,4.53,4.9,7.21,7.33,3.56,3.26,7-2.22,12.46-2,16.87.52,10.33,17.82,18.57,15.65,35.57-9.38,29.59,36.12,14.13,46.11C163.76,344.07,171.62,349.07,169.85,360.91Z"></path><ellipse class="cls-2" cx="93.36" cy="344.91" rx="60" ry="59.26"></ellipse><ellipse class="cls-8" cx="93.36" cy="342.51" rx="54.71" ry="54.03"></ellipse><path class="cls-9" d="M34.57,363.81c-3.44,2.14-4.43,9.34-1.71,12.46s7.9.71,9-4.15a1.62,1.62,0,0,0,2.93.4,3.34,3.34,0,0,0,.2-3c-.26-.22-.17-.38,0,0,1.76,1.4,4.8-.13,5.22-3.12-1.29,8,5.95,14.91,11.28,10.86-1.57,3.38.49,7.83,3.25,8.68s5.7-.76,8.34-2.57,5.33-3.86,8.21-4c2.52-.12,4.84,1.3,7.23,2.14,7.62,2.65,16.53-.86,22.36-8.85,3.85,6.59,13.33,4.17,15.88-4,.53,3.84,3.16,6.77,6.09,6.81s5.89-2.81,6.89-6.63v.05c.07,3.63,3.31,5.41,5.63,3.08,3-3,4.79-8.46,3.34-12.85,3.94-.16,7.76-4.73,8.36-10s-2.07-10.62-5.88-11.67c6.53-2.71,11.65-11.61,11.9-20.69s-4.43-17.5-10.84-19.62a6.83,6.83,0,0,0-7.37,1.54c-.76-5.17-3.11-9.79-6.56-12.11-5.51-3.72-13.17-1.17-17.26,5.75a13.63,13.63,0,0,0,.31-12.14c-1.82-3.37-5.43-4.73-8.5-3.13-.66-5.54-4.94-9.49-9.13-8.41s-7.56,7-7.2,12.61c-.39-4.52-5.72-5.63-7.64-1.84.16.34-.08.14,0,0-2.66-5.59-8.08-8.46-13.11-6.83-5.34,1.75-9.83,8.47-10.51,15.78-3.69-3.36-9.07-3.21-13,.37S46,299,46.67,305c-4.16-4.11-11.16-1.87-14,4.48s-.88,15.32,3.93,18c-3.32.5-6.24,4.91-6.24,9.37s2.93,8.28,6.26,8.16c-3.36.29-6.52,4.26-7,8.77S31.36,362.82,34.57,363.81Z"></path><g class="cls-10"><path class="cls-1" d="M89.73,343a6.26,6.26,0,0,0-5.86-1.44A7,7,0,0,0,79.48,347c-.46,2.62.75,5.51,2.75,6,2.44.61,5-2.12,7.44-1.83a18.8,18.8,0,0,1,2.57.84c3.57,1,7.19-2.21,10.22-5.22a14.09,14.09,0,0,0,2.89-3.61,5.87,5.87,0,0,0,.38-4.76c-.88-2-3-2.12-4.86-1.74a19.41,19.41,0,0,0-10.09,5.93c.11-.73.21-1.46.32-2.19Z"></path><path class="cls-1" d="M142,335.91a8,8,0,0,0-3.1-1.91,3,3,0,0,0-3.28,1.36,4.79,4.79,0,0,0,.81,5.45A7.65,7.65,0,0,0,141,342.5c1.65.23,3.74.18,4.59-1.74a4.17,4.17,0,0,0-.7-4.17,7,7,0,0,0-3.22-1.85Z"></path><path class="cls-1" d="M60.16,306.33c-3.36,2-6,6.05-6.86,10.59C53,318.29,53,320,54,320.65a2.43,2.43,0,0,0,2.25-.06l9.62-3.48a14.28,14.28,0,0,0-4.36,3.18A7.19,7.19,0,0,0,59.73,326a4.18,4.18,0,0,0,4.36,3.53c1.92-.16,3.73-1.48,5.31-3s3.36-3.84,3.44-6.45-2.45-4.88-4.06-3.11a35.5,35.5,0,0,0,10.37-6.59,12.37,12.37,0,0,0,3-3.72,6.38,6.38,0,0,0,.39-5c-3.13-7.37-7.46,4-9.49,5.1C69.24,308.84,65,303.45,60.16,306.33Z"></path><path class="cls-1" d="M44.71,339.55a4.59,4.59,0,0,0,.76,4.18,1.89,1.89,0,0,0,3.07-1c-2.15,1-4.45,2.1-5.82,4.47s-1.12,6.36,1,7.12c1.31.47,2.75-.45,4-1.38a84.22,84.22,0,0,0,10-8.9c-1,2.85,1.22,5.88,3.59,6s4.63-1.66,6.7-3.36c2.54-2.1,5.46-5.23,4.87-8.83a4.34,4.34,0,0,0-6.13-3.26c-2.45,1.08-4.34,3.71-6.09,6.22,1.38-2.58-.45-6.16-2.79-6.42s-4.59,1.66-6.05,3.89c2.69-2,3.38-6.91-.17-7.25C49.35,330.8,45.31,337.06,44.71,339.55Z"></path><path class="cls-1" d="M117.87,324.2c-2-.84-4.54,1-5.13,3.66s.92,5.61,3,5.89a6.39,6.39,0,0,0-4.1,2.94,5,5,0,0,0-.91,3.1,2.83,2.83,0,0,0,2.8,2.6,7.75,7.75,0,0,0,3.75-1.56,6.33,6.33,0,0,0-3.69,1.58c-1,1.07-1.51,3.23-.62,4.33.75.92,2,.68,3,.25a16.62,16.62,0,0,0,6.35-4.88c1.29,1.79,3.23,3,5.19,2.49a5,5,0,0,0,3.1-5.64,3.64,3.64,0,0,0-3.19-2.81,8.39,8.39,0,0,0-4.16,1.08,10.64,10.64,0,0,0,3.42-4.89c.54-2.08-.5-4.77-2.18-4.5-1.9.31-2.92,3.65-4.44,4.92C118.34,330.67,121.87,325.88,117.87,324.2Z"></path><path class="cls-1" d="M84,316.26c-2.19,2-3,5.69-2.91,9,.1,3.64,1.33,7.46,3.93,8.77,3.42,1.71,7.8-2.22,8.52-7s-1.63-9.45-4.93-11.46A4.14,4.14,0,0,0,84,316.26Z"></path><path class="cls-1" d="M108.19,310.84l.87.93a3.81,3.81,0,0,0-6.29-.25c-1.77,2.15-1.86,6.11-.17,8.06s4.8,1.47,6.32-1a5.77,5.77,0,0,0,7.57-2.26c1.8-2.81,1.49-7.49-.87-9.07s-6,1.23-5.85,4.71l-1-1.41Z"></path><path class="cls-1" d="M134.73,314.69c-1.75,2.25-3.57,4.65-4.25,7.64s.28,6.68,2.59,7.29,4.53-1.95,5.89-4.56c1.23-2.36,2.19-5.26,1.56-7.82s-3.55-3.92-5.05-1.82Z"></path><path class="cls-1" d="M96.67,299.22a3.34,3.34,0,0,0-5.4-1.57c-1.83,1.54-2.56,4.81-1.81,7.28a5.7,5.7,0,0,0,4.84,4.22,5.35,5.35,0,0,0,5.23-5.92,4.64,4.64,0,0,0,5,2.11,12.86,12.86,0,0,0,5.25-2.82c2.23-1.74,4.62-4.38,4.45-7.59a4.62,4.62,0,0,0-4.06-4.52c-2-.12-4,1.2-5.58,3-1.23,1.39-2.26,3.08-3.59,4.31s-3.11,1.95-4.5,1.08Z"></path></g></g><g id="Keyboard_-_copie" data-name="Keyboard - copie"><rect class="cls-8" x="198.83" y="388.88" width="333.98" height="140.66"></rect><rect class="cls-11" x="205.81" y="397.4" width="31.42" height="17.4"></rect><rect class="cls-11" x="475.59" y="482.19" width="49.49" height="17.4"></rect><rect class="cls-11" x="494.54" y="419.12" width="30.55" height="17.4"></rect><rect class="cls-11" x="205.81" y="460.74" width="31.42" height="17.4"></rect><rect class="cls-11" x="205.81" y="439.79" width="25.44" height="17.39"></rect><rect class="cls-11" x="205.81" y="418.59" width="17.39" height="17.4"></rect><rect class="cls-11" x="228.01" y="418.59" width="17.39" height="17.4"></rect><rect class="cls-11" x="250.21" y="418.59" width="17.4" height="17.4"></rect><rect class="cls-11" x="272.41" y="418.59" width="17.39" height="17.4"></rect><rect class="cls-11" x="294.61" y="418.59" width="17.39" height="17.4"></rect><rect class="cls-11" x="316.82" y="418.59" width="17.39" height="17.4"></rect><rect class="cls-11" x="339.02" y="418.59" width="17.39" height="17.4"></rect><rect class="cls-11" x="361.22" y="418.59" width="17.39" height="17.4"></rect><rect class="cls-11" x="383.42" y="418.59" width="17.39" height="17.4"></rect><rect class="cls-11" x="405.62" y="418.59" width="17.4" height="17.4"></rect><rect class="cls-11" x="427.82" y="418.59" width="17.39" height="17.4"></rect><rect class="cls-11" x="450.02" y="418.59" width="17.39" height="17.4"></rect><rect class="cls-11" x="472.22" y="418.59" width="17.39" height="17.4"></rect><rect class="cls-11" x="205.81" y="503.64" width="17.39" height="17.4"></rect><rect class="cls-11" x="228.01" y="503.64" width="17.39" height="17.4"></rect><rect class="cls-11" x="250.21" y="503.64" width="17.4" height="17.4"></rect><rect class="cls-11" x="272.41" y="503.64" width="21.22" height="17.4"></rect><rect class="cls-11" x="298.44" y="503.64" width="106.2" height="17.4"></rect><rect class="cls-11" x="440.35" y="503.64" width="17.39" height="17.4"></rect><rect class="cls-11" x="462.55" y="503.64" width="17.39" height="17.4"></rect><rect class="cls-11" x="484.79" y="503.64" width="17.39" height="17.4"></rect><rect class="cls-11" x="408.99" y="503.64" width="27.01" height="17.4"></rect><rect class="cls-11" x="507.69" y="503.64" width="17.39" height="17.4"></rect><rect class="cls-11" x="236.18" y="439.79" width="17.39" height="17.39"></rect><rect class="cls-11" x="258.38" y="439.79" width="17.39" height="17.39"></rect><rect class="cls-11" x="280.59" y="439.79" width="17.39" height="17.39"></rect><rect class="cls-11" x="302.79" y="439.79" width="17.39" height="17.39"></rect><rect class="cls-11" x="324.99" y="439.79" width="17.39" height="17.39"></rect><rect class="cls-11" x="347.19" y="439.79" width="17.4" height="17.39"></rect><rect class="cls-11" x="369.39" y="439.79" width="17.39" height="17.39"></rect><rect class="cls-11" x="391.59" y="439.79" width="17.39" height="17.39"></rect><rect class="cls-11" x="413.79" y="439.79" width="17.39" height="17.39"></rect><rect class="cls-11" x="436" y="439.79" width="17.39" height="17.39"></rect><rect class="cls-11" x="458.2" y="439.79" width="17.39" height="17.39"></rect><rect class="cls-11" x="480.4" y="439.79" width="17.39" height="17.39"></rect><polygon class="cls-11" points="525.09 439.8 525.09 478.39 507.69 478.39 507.69 457.19 502.6 457.19 502.6 439.8 525.09 439.8"></polygon><rect class="cls-11" x="241.27" y="460.99" width="17.39" height="17.39"></rect><rect class="cls-11" x="263.48" y="460.99" width="17.39" height="17.39"></rect><rect class="cls-11" x="285.68" y="460.99" width="17.4" height="17.39"></rect><rect class="cls-11" x="307.88" y="460.99" width="17.4" height="17.39"></rect><rect class="cls-11" x="330.08" y="460.99" width="17.4" height="17.39"></rect><rect class="cls-11" x="352.28" y="460.99" width="17.4" height="17.39"></rect><rect class="cls-11" x="374.48" y="460.99" width="17.4" height="17.39"></rect><rect class="cls-11" x="396.68" y="460.99" width="17.4" height="17.39"></rect><rect class="cls-11" x="418.89" y="460.99" width="17.4" height="17.39"></rect><rect class="cls-11" x="441.09" y="460.99" width="17.4" height="17.39"></rect><rect class="cls-11" x="463.29" y="460.99" width="17.4" height="17.39"></rect><rect class="cls-11" x="485.49" y="460.99" width="17.4" height="17.39"></rect><rect class="cls-11" x="231.84" y="482.19" width="17.39" height="17.4"></rect><rect class="cls-11" x="254.04" y="482.19" width="17.39" height="17.4"></rect><rect class="cls-11" x="276.24" y="482.19" width="17.39" height="17.4"></rect><rect class="cls-11" x="298.44" y="482.19" width="17.39" height="17.4"></rect><rect class="cls-11" x="320.64" y="482.19" width="17.4" height="17.4"></rect><rect class="cls-11" x="342.85" y="482.19" width="17.39" height="17.4"></rect><rect class="cls-11" x="365.05" y="482.19" width="17.39" height="17.4"></rect><rect class="cls-11" x="387.25" y="482.19" width="17.39" height="17.4"></rect><rect class="cls-11" x="409.45" y="482.19" width="17.39" height="17.4"></rect><rect class="cls-11" x="431.65" y="482.19" width="17.39" height="17.4"></rect><rect class="cls-11" x="453.85" y="482.19" width="17.39" height="17.4"></rect><rect class="cls-11" x="241.27" y="398.45" width="17.39" height="17.39"></rect><rect class="cls-11" x="263.48" y="398.45" width="17.39" height="17.39"></rect><rect class="cls-11" x="285.68" y="398.45" width="17.4" height="17.39"></rect><rect class="cls-11" x="307.88" y="398.45" width="17.4" height="17.39"></rect><rect class="cls-11" x="330.08" y="398.45" width="17.4" height="17.39"></rect><rect class="cls-11" x="352.28" y="398.45" width="17.4" height="17.39"></rect><rect class="cls-11" x="374.48" y="398.45" width="17.4" height="17.39"></rect><rect class="cls-11" x="396.68" y="398.45" width="17.4" height="17.39"></rect><rect class="cls-11" x="418.89" y="398.45" width="17.4" height="17.39"></rect><rect class="cls-11" x="441.09" y="398.45" width="17.4" height="17.39"></rect><rect class="cls-11" x="463.29" y="398.45" width="17.4" height="17.39"></rect><rect class="cls-11" x="485.49" y="398.45" width="17.4" height="17.39"></rect><rect class="cls-11" x="507.69" y="398.45" width="17.39" height="17.39"></rect><rect class="cls-11" x="205.81" y="482.19" width="21.07" height="17.4"></rect><polygon class="cls-8" points="198.83 389.79 205.81 387.46 528.28 387.46 532.87 389.76 198.83 389.79"></polygon></g><g id="Hands_-_copie" data-name="Hands - copie"><path class="cls-7" d="M437.22,631l-6.79-40.91a33.42,33.42,0,0,0-9.19-16c-13.51-13-31.36-26.41-32.13-43.49-1.17-26.11-5.24-25.33-4.81-31.77a76.38,76.38,0,0,0,4.65-9.56,56.15,56.15,0,0,0,2-7.73,5.27,5.27,0,0,1,5.85-4.12,9,9,0,0,1,4.91,2.3,13.6,13.6,0,0,1,3.67,9.41,40.33,40.33,0,0,1-1.44,10.22c2.43,5.45,3.57,12.06,4.35,18,1.55-4.78,2.73-9.6,4.27-14.36.32-.18.21-.55.51-.73-2.18-4.69-.33-4.43-4.66-14.75-7.28-17.38-15.41-34.13-21.21-56a12.28,12.28,0,0,1,.13-6.14c2.1-6.24,8.53-4.81,11.33-1.17a11.55,11.55,0,0,1,1.74,3.15,168.72,168.72,0,0,0,13.86,26.72l15.77,24s5.48-4.5,6.32-6.51l0,0c.82-2,1.23-18.34,1.23-18.34s-1.25,3.05-4,2.88c-2-.15-6.05,1-8.94-2.23a7.54,7.54,0,0,1-.26-9.47l7.14-9.64a10.83,10.83,0,0,1,11.21-1.35c6.4,2.87,12.61,8.83,12.61,8.83a25.86,25.86,0,0,1,11,2.11c5.06,2.44,10.36,9.42,10.36,9.42s5.89.36,8.54,2.28c.67.48,9.66,14.48,6.41,25.39-1.92,6.5-3.11,15.94-4,18.47l-4.41,63.84,8.9,42-19,10.61a136.91,136.91,0,0,1-21.91,9.8Z"></path><path class="cls-1" d="M491.29,556.43l.17-64c.7-2.59,1.25-12.09,2.74-18.7,2.51-11.09-7.39-24.47-8.09-24.9-2.77-1.73-8.67-1.7-8.67-1.7s-5.75-6.62-11-8.71A25.75,25.75,0,0,0,455.39,437s-6.58-5.55-13.17-8a10.85,10.85,0,0,0-11.09,2.09l-6.48,10.09a7.54,7.54,0,0,0,.89,9.43c3.09,3.06,7.06,1.63,9.06,1.63,2.77,0,3.81-3.13,3.81-3.13s.68,16.3,0,18.38h0c-.71,2.08-5.88,6.93-5.88,6.93l-17.32-22.93a167.45,167.45,0,0,1-15.61-25.74,11.8,11.8,0,0,0-1.95-3c-3-3.44-9.54-4.45-11.23,1.92a12.48,12.48,0,0,0,.28,6.13c7.25,21.4,16.47,37.57,24.88,54.43,5,10,3.15,9.89,5.64,14.41-.29.2-.16.57-.46.76-1.23,4.86-2.08,9.74-3.3,14.61-1.18-5.84-2.76-12.36-5.55-17.63a39.76,39.76,0,0,0,.76-10.31,13.6,13.6,0,0,0-4.29-9.14,8.94,8.94,0,0,0-5.05-2,5.27,5.27,0,0,0-5.57,4.5,52.16,52.16,0,0,1-1.45,7.84,78.83,78.83,0,0,1-4,9.84c0,6.46,4,5.41,6.91,31.39,2.26,20.24,28.32,33.61,42.51,48.22l15.12,47.56a293.59,293.59,0,0,0,50.47-26.49Z"></path><g class="cls-12"><path class="cls-3" d="M483.87,469.46a11.09,11.09,0,0,1,3.32-5c1.64-1.2,4.22-1.35,5.54.19q-1.62-5-3.44-9.89c-.92-2.49-2-5.09-4-6.77s-5.46-2-7.22-.05a78,78,0,0,1,.41,22.88c-.54,4.11-1.23,8.84,1.54,11.93.76.62,2.08-.5,1.6-1.35-.23-.41-1.05-.44-1.4-.4A72.91,72.91,0,0,1,483.87,469.46Z"></path><path class="cls-3" d="M483.87,469.46a11.09,11.09,0,0,1,3.32-5c1.64-1.2,4.22-1.35,5.54.19q-1.62-5-3.44-9.89c-.92-2.49-2-5.09-4-6.77s-5.46-2-7.22-.05a78,78,0,0,1,.41,22.88c-.54,4.11-1.23,8.84,1.54,11.93.76.62,2.08-.5,1.6-1.35-.23-.41-1.05-.44-1.4-.4A72.91,72.91,0,0,1,483.87,469.46Z"></path><path class="cls-5" d="M483.87,469.46a11.09,11.09,0,0,1,3.32-5c1.64-1.2,4.22-1.35,5.54.19q-1.62-5-3.44-9.89c-.92-2.49-2-5.09-4-6.77s-5.46-2-7.22-.05a78,78,0,0,1,.41,22.88c-.54,4.11-1.23,8.84,1.54,11.93.76.62,2.08-.5,1.6-1.35-.23-.41-1.05-.44-1.4-.4A72.91,72.91,0,0,1,483.87,469.46Z"></path><path class="cls-3" d="M460.77,462.59a39.75,39.75,0,0,0,.78,8.31,10.34,10.34,0,0,0,4.62,6.68c-1.43-5.39-.66-11.1.13-16.63q.7-5,1.43-10.07a7.59,7.59,0,0,1,1-3.35,2.62,2.62,0,0,1,3.06-1.11c-1.43.85-3.29-.29-4.15-1.71s-1.2-3.14-2.23-4.45c-1.93-2.49-6.07-3-8.93-2.38C457.36,446.15,460.43,454.05,460.77,462.59Z"></path><path class="cls-3" d="M460.77,462.59a39.75,39.75,0,0,0,.78,8.31,10.34,10.34,0,0,0,4.62,6.68c-1.43-5.39-.66-11.1.13-16.63q.7-5,1.43-10.07a7.59,7.59,0,0,1,1-3.35,2.62,2.62,0,0,1,3.06-1.11c-1.43.85-3.29-.29-4.15-1.71s-1.2-3.14-2.23-4.45c-1.93-2.49-6.07-3-8.93-2.38C457.36,446.15,460.43,454.05,460.77,462.59Z"></path><g class="cls-13"><path class="cls-5" d="M460.77,462.59a39.75,39.75,0,0,0,.78,8.31,10.34,10.34,0,0,0,4.62,6.68c-1.43-5.39-.66-11.1.13-16.63q.7-5,1.43-10.07a7.59,7.59,0,0,1,1-3.35,2.62,2.62,0,0,1,3.06-1.11c-1.43.85-3.29-.29-4.15-1.71s-1.2-3.14-2.23-4.45c-1.93-2.49-6.07-3-8.93-2.38C457.36,446.15,460.43,454.05,460.77,462.59Z"></path></g><path class="cls-3" d="M437.13,440.27a5,5,0,0,1-1.53-3,4.31,4.31,0,0,0-1.69-2.92c-4.45,2.82-2,11.08-6.52,13.82-.87.54-2,.84-2.46,1.73a2.28,2.28,0,0,0,.47,2.55,4.4,4.4,0,0,0,2.46,1.17,10,10,0,0,0,9.48-4.12c1.76-2.43,3-6.35,2.11-9.22A2.23,2.23,0,0,1,437.13,440.27Z"></path><path class="cls-3" d="M390.91,494.4c-.08.31-.14.7.1.9s.89-.17,1.18-.57a7.73,7.73,0,0,1,8.62-2.8c1.17,0,1.57-1.81.8-2.7a4.19,4.19,0,0,0-3.24-1,6.38,6.38,0,0,1-3.42-.56,3.43,3.43,0,0,1-1.39-3.65C392.78,487.47,391.8,490.93,390.91,494.4Z"></path><g class="cls-13"><path class="cls-5" d="M437.13,440.27a5,5,0,0,1-1.53-3,4.31,4.31,0,0,0-1.69-2.92c-4.45,2.82-2,11.08-6.52,13.82-.87.54-2,.84-2.46,1.73a2.28,2.28,0,0,0,.47,2.55,4.4,4.4,0,0,0,2.46,1.17,10,10,0,0,0,9.48-4.12c1.76-2.43,3-6.35,2.11-9.22A2.23,2.23,0,0,1,437.13,440.27Z"></path><path class="cls-5" d="M390.91,494.4c-.08.31-.14.7.1.9s.89-.17,1.18-.57a7.73,7.73,0,0,1,8.62-2.8c1.17,0,1.57-1.81.8-2.7a4.19,4.19,0,0,0-3.24-1,6.38,6.38,0,0,1-3.42-.56,3.43,3.43,0,0,1-1.39-3.65C392.78,487.47,391.8,490.93,390.91,494.4Z"></path></g><path class="cls-3" d="M449.85,439.17c-2.53-.34-5.21-.4-7.41-1.69-2.76-1.62-4.66-5.08-7.86-5.22-2.84-.12-4.95,2.48-6.57,4.83-.18-3.54,2.41-6.84,5.7-8.16a14.2,14.2,0,0,1,10.35.41,38.82,38.82,0,0,1,9,5.59,12.44,12.44,0,0,1,3,3C459.66,443.52,452.09,439.47,449.85,439.17Z"></path><path class="cls-5" d="M449.85,439.17c-2.53-.34-5.21-.4-7.41-1.69-2.76-1.62-4.66-5.08-7.86-5.22-2.84-.12-4.95,2.48-6.57,4.83-.18-3.54,2.41-6.84,5.7-8.16a14.2,14.2,0,0,1,10.35.41,38.82,38.82,0,0,1,9,5.59,12.44,12.44,0,0,1,3,3C459.66,443.52,452.09,439.47,449.85,439.17Z"></path><path class="cls-3" d="M404.57,521.4c.17-.32.32-.64.47-1A1.09,1.09,0,0,0,404.57,521.4Z"></path><path class="cls-3" d="M408.87,499c-.29-3.57.22-7.16.07-10.73s-1.08-7.35-3.69-9.8c-3.73-3.52-14-1.72-10.53,5a4.28,4.28,0,0,0,5.31,2,3.87,3.87,0,0,0,1.8-5.23,18.53,18.53,0,0,1-.88,21.09A16.86,16.86,0,0,1,405,520.43a2.11,2.11,0,0,1,2.38,0c1,.77,1.36,2.11,1.85,3.28s1.45,2.39,2.72,2.3c1.74-4.26,1.16-9.11,0-13.58S409.23,503.56,408.87,499Z"></path><path class="cls-3" d="M446.33,431.83a14.42,14.42,0,0,0-6.85-2.89Z"></path><path class="cls-3" d="M463.35,477.13c-.55-2.46-1.68-4.75-2.36-7.18-1.58-5.66-.59-11.71-1.31-17.54a30.31,30.31,0,0,0-10.76-19.49l-2.59-1.09a14.62,14.62,0,0,1,5.22,7.59c2,6.91,2.63,14.13,3.52,21.27a286,286,0,0,0,6,32.74C462.81,488.15,464.56,482.56,463.35,477.13Z"></path><path class="cls-3" d="M435.78,451.38a9,9,0,0,0,3.06-5.94,24.52,24.52,0,0,0-.16-6.11,2,2,0,0,1-2.28,1.37c-1.23-.29-2-1.44-2.74-2.49-.17.6-.35,1.21-.53,1.82l-.21-1-.69.88c1,2.9,2,6.28.43,8.92a10.6,10.6,0,0,1-3.26,3A5.51,5.51,0,0,0,435.78,451.38Z"></path><path class="cls-3" d="M438.59,438.6l.09.73A1.17,1.17,0,0,0,438.59,438.6Z"></path><path class="cls-3" d="M431,467.91c-5.08-10-10.16-20-15.74-29.66a95.69,95.69,0,0,0-11.07-16.16c-1.93-2.17-7.47-7.18-10.53-3.88-2,2.21.65,6.21-1.86,8.59.58,0,3.41-.27,3.71.1A44,44,0,0,1,405.25,455c2.05-1.6,4.85.62,6.44,2.67a473.11,473.11,0,0,1,27.46,39.24c-1.64-6-1.68-12.32-3.45-18.27A64.79,64.79,0,0,0,431,467.91Z"></path><path class="cls-3" d="M490,492.21c2.42-6.49,4.32-13.14,4.53-20A32.85,32.85,0,0,0,490,454c-.84-1.35-4.32-6.9-6.22-6.45-3.4.8,1.06,6.71,1.84,8.19,2.94,5.57,5.95,11.46,5.76,17.76-.14,4.85-2.18,9.41-3.81,14a29.34,29.34,0,0,0-2,9.93c-.25.37-.48.76-.76,1.12-2.25,2.95-5.42,5.39-9.09,6l4.2-13c.5-1.54.68-3.65-.22-4.72a3.87,3.87,0,0,0,.44-1.89,8.81,8.81,0,0,0-1.23-3.32c-1.93-4.18-1.28-9-.81-13.6.59-5.65.81-11.46-.85-16.89s-5.49-10.46-10.87-12.26l1.38,1.49-1.82-1.33,3.39,7.06L468,447.93c1.87-1,4.26.44,5.12,2.36s.62,4.14.42,6.24a124.61,124.61,0,0,0,1.71,35.12,17.28,17.28,0,0,1-2.08,7.73c-1.52,2.48-4.37,4.34-7.24,3.92a7.63,7.63,0,0,0-2.8-7.72c-2.92,4.06-1.2,10.35-.75,15a162.49,162.49,0,0,0,3.36,20.79,67.17,67.17,0,0,1,3.7-17.43q2.36,8.58,4.72,17.16a10.32,10.32,0,0,1,.89-4.68c.78-1.4,2.5-2.41,4-1.85,1.23.46,1.89,1.77,2.39,3a53.24,53.24,0,0,1,2.92,31.32c1.94,1.08,4.51-.22,5.59-2.17s1.07-4.28,1-6.51Q490.51,521.2,490,492.21Z"></path><path class="cls-3" d="M440.92,498.34c-.92,1.63,2.87,8.09,3.5,9.62L454,531.33a110.45,110.45,0,0,0-7.42-29.93C445.92,499.79,442.77,495.11,440.92,498.34Z"></path><path class="cls-3" d="M445.88,457.05c-.54.82-1.32,1.83-2.27,1.55s-1-1.44-1-2.36q.13-8.13.26-16.26c-4.37,3.14-3.81,7.25-4.12,11.93-.18,2.71.61,15.63-1.24,17.21A48.26,48.26,0,0,0,448.27,456C447.51,455.38,446.42,456.22,445.88,457.05Z"></path><g class="cls-13"><path class="cls-1" d="M404.57,521.4c.17-.32.32-.64.47-1A1.09,1.09,0,0,0,404.57,521.4Z"></path><path class="cls-5" d="M408.87,499c-.29-3.57.22-7.16.07-10.73s-1.08-7.35-3.69-9.8c-3.73-3.52-14-1.72-10.53,5a4.28,4.28,0,0,0,5.31,2,3.87,3.87,0,0,0,1.8-5.23,18.53,18.53,0,0,1-.88,21.09A16.86,16.86,0,0,1,405,520.43a2.11,2.11,0,0,1,2.38,0c1,.77,1.36,2.11,1.85,3.28s1.45,2.39,2.72,2.3c1.74-4.26,1.16-9.11,0-13.58S409.23,503.56,408.87,499Z"></path><path class="cls-1" d="M446.33,431.83a14.42,14.42,0,0,0-6.85-2.89Z"></path><path class="cls-5" d="M463.35,477.13c-.55-2.46-1.68-4.75-2.36-7.18-1.58-5.66-.59-11.71-1.31-17.54a30.31,30.31,0,0,0-10.76-19.49l-2.59-1.09a14.62,14.62,0,0,1,5.22,7.59c2,6.91,2.63,14.13,3.52,21.27a286,286,0,0,0,6,32.74C462.81,488.15,464.56,482.56,463.35,477.13Z"></path><path class="cls-5" d="M435.78,451.38a9,9,0,0,0,3.06-5.94,24.52,24.52,0,0,0-.16-6.11,2,2,0,0,1-2.28,1.37c-1.23-.29-2-1.44-2.74-2.49-.17.6-.35,1.21-.53,1.82l-.21-1-.69.88c1,2.9,2,6.28.43,8.92a10.6,10.6,0,0,1-3.26,3A5.51,5.51,0,0,0,435.78,451.38Z"></path><path class="cls-1" d="M438.59,438.6l.09.73A1.17,1.17,0,0,0,438.59,438.6Z"></path><path class="cls-5" d="M431,467.91c-5.08-10-10.16-20-15.74-29.66a95.69,95.69,0,0,0-11.07-16.16c-1.93-2.17-7.47-7.18-10.53-3.88-2,2.21.65,6.21-1.86,8.59.58,0,3.41-.27,3.71.1A44,44,0,0,1,405.25,455c2.05-1.6,4.85.62,6.44,2.67a473.11,473.11,0,0,1,27.46,39.24c-1.64-6-1.68-12.32-3.45-18.27A64.79,64.79,0,0,0,431,467.91Z"></path><path class="cls-5" d="M490,492.21c2.42-6.49,4.32-13.14,4.53-20A32.85,32.85,0,0,0,490,454c-.84-1.35-4.32-6.9-6.22-6.45-3.4.8,1.06,6.71,1.84,8.19,2.94,5.57,5.95,11.46,5.76,17.76-.14,4.85-2.18,9.41-3.81,14a29.34,29.34,0,0,0-2,9.93c-.25.37-.48.76-.76,1.12-2.25,2.95-5.42,5.39-9.09,6l4.2-13c.5-1.54.68-3.65-.22-4.72a3.87,3.87,0,0,0,.44-1.89,8.81,8.81,0,0,0-1.23-3.32c-1.93-4.18-1.28-9-.81-13.6.59-5.65.81-11.46-.85-16.89s-5.49-10.46-10.87-12.26l1.38,1.49-1.82-1.33,3.39,7.06L468,447.93c1.87-1,4.26.44,5.12,2.36s.62,4.14.42,6.24a124.61,124.61,0,0,0,1.71,35.12,17.28,17.28,0,0,1-2.08,7.73c-1.52,2.48-4.37,4.34-7.24,3.92a7.63,7.63,0,0,0-2.8-7.72c-2.92,4.06-1.2,10.35-.75,15a162.49,162.49,0,0,0,3.36,20.79,67.17,67.17,0,0,1,3.7-17.43q2.36,8.58,4.72,17.16a10.32,10.32,0,0,1,.89-4.68c.78-1.4,2.5-2.41,4-1.85,1.23.46,1.89,1.77,2.39,3a53.24,53.24,0,0,1,2.92,31.32c1.94,1.08,4.51-.22,5.59-2.17s1.07-4.28,1-6.51Q490.51,521.2,490,492.21Z"></path><path class="cls-5" d="M440.92,498.34c-.92,1.63,2.87,8.09,3.5,9.62L454,531.33a110.45,110.45,0,0,0-7.42-29.93C445.92,499.79,442.77,495.11,440.92,498.34Z"></path><path class="cls-5" d="M445.88,457.05c-.54.82-1.32,1.83-2.27,1.55s-1-1.44-1-2.36q.13-8.13.26-16.26c-4.37,3.14-3.81,7.25-4.12,11.93-.18,2.71.61,15.63-1.24,17.21A48.26,48.26,0,0,0,448.27,456C447.51,455.38,446.42,456.22,445.88,457.05Z"></path></g></g><path class="cls-14" d="M457,439.32a113.49,113.49,0,0,1,4,29,15.81,15.81,0,0,0,.52,4.86,4.77,4.77,0,0,0,3.32,3.31"></path><path class="cls-14" d="M477.44,448.83c4.3,9.06-.1,29.31.23,30.74a5,5,0,0,0,2.44,3.47"></path><path class="cls-14" d="M440.11,438.08c-.5,2.88-.93,6.22-1.43,9.1a16.8,16.8,0,0,1-5.81-11.53"></path><path class="cls-14" d="M412.37,515.33l-3.12,1.38"></path><path class="cls-14" d="M413.17,517.84a18.23,18.23,0,0,0,0,7.32"></path><path class="cls-14" d="M431.47,490.78l3.47,6.24"></path><path class="cls-14" d="M438.13,467.94l3.44-4.86"></path><path class="cls-14" d="M486.6,490.78c-.35,1.27-.7,2.54-1,3.81"></path><path class="cls-14" d="M478.17,480.34q1.51-4.86,3.05-9.73"></path><path class="cls-14" d="M488.36,463.09a3.9,3.9,0,0,1,5.27,1.64"></path><path class="cls-14" d="M467.55,446.47a7.47,7.47,0,0,1,7,1.6"></path><path class="cls-14" d="M403.06,456.12a10.61,10.61,0,0,1,9-3.38"></path><path class="cls-14" d="M390,428.81a9.7,9.7,0,0,1,7.29-1.7"></path><path class="cls-1" d="M392.68,493.6a18.61,18.61,0,0,0-4.24,4.78Z"></path><path class="cls-14" d="M394.07,487c2.29-1.63,5.94,2,8.05.16a3.39,3.39,0,0,0,.7-3.14,10.78,10.78,0,0,1-.42-3.32"></path><path class="cls-14" d="M458.64,477a26.18,26.18,0,0,1,1.58,18.56"></path><path class="cls-14" d="M475.45,485.92a12,12,0,0,1-1.45,8"></path><path class="cls-15" d="M452.83,625.36,437.71,577.8c-14.19-14.61-40.25-28-42.51-48.22-2.91-26-6.91-24.93-6.91-31.39a78.83,78.83,0,0,0,4-9.84,52.16,52.16,0,0,0,1.45-7.84,5.27,5.27,0,0,1,5.57-4.5,8.94,8.94,0,0,1,5.05,2,13.6,13.6,0,0,1,4.29,9.14,39.76,39.76,0,0,1-.76,10.31c2.79,5.27,4.37,11.79,5.55,17.63,1.22-4.87,2.07-9.75,3.3-14.61.3-.19.17-.56.46-.76-2.49-4.52-.64-4.4-5.64-14.41-8.41-16.86-17.63-33-24.88-54.43a12.48,12.48,0,0,1-.28-6.13c1.69-6.37,8.2-5.36,11.23-1.92a11.8,11.8,0,0,1,1.95,3,167.45,167.45,0,0,0,15.61,25.74l17.32,22.93s5.17-4.85,5.88-6.93h0c.68-2.08,0-18.38,0-18.38s-1,3.13-3.81,3.13c-2,0-6,1.43-9.06-1.63a7.54,7.54,0,0,1-.89-9.43l6.48-10.09a10.85,10.85,0,0,1,11.09-2.09c6.59,2.43,13.17,8,13.17,8a25.75,25.75,0,0,1,11.09,1.38c5.21,2.09,11,8.71,11,8.71s5.9,0,8.67,1.7c.7.43,10.6,13.81,8.09,24.9-1.49,6.61-2,16.11-2.74,18.7l-.17,64,12,42.44"></path><path class="cls-15" d="M457,439.32a113.49,113.49,0,0,1,4,29,15.81,15.81,0,0,0,.52,4.86,4.77,4.77,0,0,0,3.32,3.31"></path><path class="cls-15" d="M477.44,448.83c4.3,9.06-.1,29.31.23,30.74a5,5,0,0,0,2.44,3.47"></path><path class="cls-15" d="M440.11,438.08c-.5,2.88-.93,6.22-1.43,9.1a16.8,16.8,0,0,1-5.81-11.53"></path><path class="cls-15" d="M412.37,515.33l-3.12,1.38"></path><path class="cls-15" d="M413.17,517.84a18.23,18.23,0,0,0,0,7.32"></path><path class="cls-15" d="M431.47,490.78l3.47,6.24"></path><path class="cls-15" d="M438.13,467.94l3.44-4.86"></path><path class="cls-15" d="M486.6,490.78c-.35,1.27-.7,2.54-1,3.81"></path><path class="cls-15" d="M478.17,480.34q1.51-4.86,3.05-9.73"></path><path class="cls-15" d="M488.36,463.09a3.9,3.9,0,0,1,5.27,1.64"></path><path class="cls-15" d="M467.55,446.47a7.47,7.47,0,0,1,7,1.6"></path><path class="cls-15" d="M403.06,456.12a10.61,10.61,0,0,1,9-3.38"></path><path class="cls-15" d="M390,428.81a9.7,9.7,0,0,1,7.29-1.7"></path><path class="cls-15" d="M392.68,493.6a18.61,18.61,0,0,0-4.24,4.78"></path><path class="cls-15" d="M394.07,487c2.29-1.63,5.94,2,8.05.16a3.39,3.39,0,0,0,.7-3.14,10.78,10.78,0,0,1-.42-3.32"></path><path class="cls-15" d="M458.64,477a26.18,26.18,0,0,1,1.58,18.56"></path><path class="cls-15" d="M475.45,485.92a12,12,0,0,1-1.45,8"></path><path class="cls-7" d="M335.46,507.65a8.7,8.7,0,0,1-.13,3c-.94,4.36-3.66,17.06-4.66,24-1.19,8.49-14.9,34.75-14.9,34.75s-12.62,15.7-19,23.86c-3.16,4-8.15,20.24-12.4,35.71q-8-2.44-15.92-5.25c-4.36-1.54-8.72-3.18-13-4.87a213.59,213.59,0,0,1-22.63-11c2.4-8.73,4-15.45,4-15.84-.07-.91,5.16-11,5.16-11l-4.56-60-2.7-9.14A69.36,69.36,0,0,1,232,497.43a70.15,70.15,0,0,1,1.87-22.2l7.86-11.66,3.68-.28,11.38-15.9s6.15-1.85,7.73,2.78-5.12,13.29-5.12,13.29l-2.31,14.29,5.48,13.38,2.84,1.05s.95-23.56.3-28.27l6.05-21.5a101,101,0,0,0,4.72-10.8c1.1-3.61,7.57-7.18,11.3-.85a9.28,9.28,0,0,1,.57,7.63c-1.52,4.41-2.78,7.89-2.78,7.89s-1.37,18.21-1.8,18.72,2.67,27.12,2.67,27.12l2.38,1.05.84-25.41,4.94-23.87s-.41-11.48,7.68-10.09a6.24,6.24,0,0,1,5.95,3.7c2.16,4.13.11,31.61.11,31.61l2,28.41,3.2,21.9,3.77-15s.22-21.52,13.8-23.35c0,0,4-.73,4.86,2.08s-2,8.54-1.61,14C334.64,501.05,335.19,505.41,335.46,507.65Z"></path><path class="cls-1" d="M331.34,481.06c-.62-2.87-4.7-2.45-4.7-2.45-13.68.8-15.52,22.25-15.52,22.25l-4.9,14.68-1.53-22.09.15-28.48s4.14-27.25,2.3-31.52a6.23,6.23,0,0,0-5.66-4.14c-8-2-8.43,9.48-8.43,9.48l-6.72,23.43-2.76,25.27-2.29-1.23s-1.09-26.8-.62-27.25,3.22-18.53,3.22-18.53,1.52-3.36,3.36-7.65a9.29,9.29,0,0,0,0-7.66c-3.22-6.58-9.94-3.51-11.32,0a101.61,101.61,0,0,1-5.52,10.41l-7.67,21c.3,4.74-2.43,28.17-2.43,28.17l-2.76-1.26-4.44-13.75,3.37-14.09s7.35-8.1,6.12-12.86-7.49-3.36-7.49-3.36l-12.55,15h-3.69l-8.72,11a69.82,69.82,0,0,0-2,36.61l2,9.31v60.18s-6,9.63-6,10.55c0,.42-2.46,8-5.9,17.5,15,8.84,27.95,15.67,37.1,19.28,4.31,1.7,8.67,3.33,13,4.88,5.5-15.45,11.93-32,15.48-35.84,7-7.65,20.81-22.35,20.81-22.35s15.66-25.15,17.49-33.52c1.52-6.86,5.19-19.32,6.46-23.59a8.39,8.39,0,0,0,.36-3c-.11-2.26-.33-6.65-.33-10.52C328.67,489.42,331.94,483.91,331.34,481.06Z"></path><g class="cls-16"><path class="cls-3" d="M237.38,475c2.33-2.92,7.14-4,9.86-1.47,1.56,1.47,2.09,3.7,2.48,5.81s.79,4.34,2.19,6,4.18,2.27,5.65.71c.19,3.17.39,6.34.58,9.51a37.61,37.61,0,0,0,5-19.46c-.07-3.29-.56-6.64.2-9.84s3.25-6.32,6.54-6.47c3.65-.17,6.53,3.39,7.23,7s-.12,7.27-.34,10.91a33.32,33.32,0,0,0,3.14,16.24q1.14-2.33,2.3-4.66l2.07,9.35q.9-10.29,1.79-20.57a14.83,14.83,0,0,1,1.26-5.65,5,5,0,0,1,4.65-2.93c2.61.26,4.11,3,5,5.51,6.52,18.45,3.84,38.72,1.07,58.09,1.82.32,3.34-1.5,3.79-3.28s.29-3.72,1-5.43,2.78-3.13,4.34-2.15c2.28,1.44.68,5.89,3.08,7.12a33,33,0,0,1,6.56-15.83c1.6-2.08,4-4.15,6.56-3.49a5.14,5.14,0,0,1,3.42,4.38c.28,1.94,3.08-6.09,2.6-4.18,1.1-11.17-1.1-12.35,0-23.52.2-2,3.46-5.51,2.07-7s-5.25-3.46-7-2.65-7.44,3.64-8.57,5.2c-7.12,9.82-6.63,24.05-8.84,36-1.89-18.18-3.77-36.67-.44-54.64,1.84-9.92,5.23-20.25,2-29.81-1.46-4.37-5.34-8.73-9.87-7.9-3.65.67-5.86,4.35-7.35,7.75-5,11.44-7.2,23.87-9.37,36.15l8.16-37.1c.71-3.21,1.42-6.52.83-9.76s-2.79-6.42-6-7.09-6.37,1.21-8.78,3.42c-8.61,7.87-11.81,19.88-14.62,31.2,1-2.95,2-6,1.68-9.12s-2.28-6.27-5.32-6.94c-3.94-.86-7.52,2.66-9.26,6.3s-2.58,7.84-5.34,10.79c-2-2.27-5.79-2.14-8.32-.46s-4.05,4.47-5.28,7.24a67.27,67.27,0,0,0-5.6,32.55A11.9,11.9,0,0,1,236,484l-.87-7.4"></path><path class="cls-3" d="M246.91,498.56c-.12,1.83-.25,3.65-.37,5.48a2.64,2.64,0,0,1,4-1c-.27-1.16.45-2.28.91-3.39s.51-2.66-.56-3.18c-1.27-.62-2.53.84-3.2,2.09-.06-.46-.12-.91-.17-1.36Z"></path><path class="cls-3" d="M267.68,495.28a12.58,12.58,0,0,0-2.92,6.06,6.17,6.17,0,0,1,2.11-1.56,2.13,2.13,0,0,1,2.41.54c.32.44.44,1.08.93,1.33a1.15,1.15,0,0,0,1.41-.52,3.25,3.25,0,0,0,.37-1.6,8.94,8.94,0,0,0-.17-3.14,3,3,0,0,0-2.1-2.18,1.86,1.86,0,0,0-2.26,1.59Z"></path><path class="cls-3" d="M287.78,500.27a16.38,16.38,0,0,0-3,7.29,6.28,6.28,0,0,0,2.81-1.51,5.57,5.57,0,0,1,2.85-1.41,2,2,0,0,1,2.26,1.77,13.36,13.36,0,0,1,.11-3.68,7.61,7.61,0,0,0-.27-3.65,3.06,3.06,0,0,0-2.78-2.05,2,2,0,0,0-1.72,2.6Z"></path><path class="cls-3" d="M232.46,507.54a14.43,14.43,0,0,0-1.69,6.81,2.38,2.38,0,0,1,2.12-2.12,4.78,4.78,0,0,1,3.09.82,8.49,8.49,0,0,0,.21-3.32,2.85,2.85,0,0,0-2.13-2.32c-1.1-.18-2.32.88-2,2l-.34-.84Z"></path><path class="cls-5" d="M237.38,475c2.33-2.92,7.14-4,9.86-1.47,1.56,1.47,2.09,3.7,2.48,5.81s.79,4.34,2.19,6,4.18,2.27,5.65.71c.19,3.17.39,6.34.58,9.51a37.61,37.61,0,0,0,5-19.46c-.07-3.29-.56-6.64.2-9.84s3.25-6.32,6.54-6.47c3.65-.17,6.53,3.39,7.23,7s-.12,7.27-.34,10.91a33.32,33.32,0,0,0,3.14,16.24q1.14-2.33,2.3-4.66l2.07,9.35q.9-10.29,1.79-20.57a14.83,14.83,0,0,1,1.26-5.65,5,5,0,0,1,4.65-2.93c2.61.26,4.11,3,5,5.51,6.52,18.45,3.84,38.72,1.07,58.09,1.82.32,3.34-1.5,3.79-3.28s.29-3.72,1-5.43,2.78-3.13,4.34-2.15c2.28,1.44.68,5.89,3.08,7.12a33,33,0,0,1,6.56-15.83c1.6-2.08,4-4.15,6.56-3.49a5.14,5.14,0,0,1,3.42,4.38c.28,1.94,3.08-6.09,2.6-4.18,1.1-11.17-1.1-12.35,0-23.52.2-2,3.46-5.51,2.07-7s-5.25-3.46-7-2.65-7.44,3.64-8.57,5.2c-7.12,9.82-6.63,24.05-8.84,36-1.89-18.18-3.77-36.67-.44-54.64,1.84-9.92,5.23-20.25,2-29.81-1.46-4.37-5.34-8.73-9.87-7.9-3.65.67-5.86,4.35-7.35,7.75-5,11.44-7.2,23.87-9.37,36.15l8.16-37.1c.71-3.21,1.42-6.52.83-9.76s-2.79-6.42-6-7.09-6.37,1.21-8.78,3.42c-8.61,7.87-11.81,19.88-14.62,31.2,1-2.95,2-6,1.68-9.12s-2.28-6.27-5.32-6.94c-3.94-.86-7.52,2.66-9.26,6.3s-2.58,7.84-5.34,10.79c-2-2.27-5.79-2.14-8.32-.46s-4.05,4.47-5.28,7.24a67.27,67.27,0,0,0-5.6,32.55A11.9,11.9,0,0,1,236,484l-.87-7.4"></path><g class="cls-13"><path class="cls-5" d="M246.91,498.56c-.12,1.83-.25,3.65-.37,5.48a2.64,2.64,0,0,1,4-1c-.27-1.16.45-2.28.91-3.39s.51-2.66-.56-3.18c-1.27-.62-2.53.84-3.2,2.09-.06-.46-.12-.91-.17-1.36Z"></path><path class="cls-5" d="M267.68,495.28a12.58,12.58,0,0,0-2.92,6.06,6.17,6.17,0,0,1,2.11-1.56,2.13,2.13,0,0,1,2.41.54c.32.44.44,1.08.93,1.33a1.15,1.15,0,0,0,1.41-.52,3.25,3.25,0,0,0,.37-1.6,8.94,8.94,0,0,0-.17-3.14,3,3,0,0,0-2.1-2.18,1.86,1.86,0,0,0-2.26,1.59Z"></path><path class="cls-5" d="M287.78,500.27a16.38,16.38,0,0,0-3,7.29,6.28,6.28,0,0,0,2.81-1.51,5.57,5.57,0,0,1,2.85-1.41,2,2,0,0,1,2.26,1.77,13.36,13.36,0,0,1,.11-3.68,7.61,7.61,0,0,0-.27-3.65,3.06,3.06,0,0,0-2.78-2.05,2,2,0,0,0-1.72,2.6Z"></path><path class="cls-5" d="M232.46,507.54a14.43,14.43,0,0,0-1.69,6.81,2.38,2.38,0,0,1,2.12-2.12,4.78,4.78,0,0,1,3.09.82,8.49,8.49,0,0,0,.21-3.32,2.85,2.85,0,0,0-2.13-2.32c-1.1-.18-2.32.88-2,2l-.34-.84Z"></path></g></g><path class="cls-15" d="M218.27,599.59c3.44-9.48,5.9-17.08,5.9-17.5,0-.92,6-10.55,6-10.55V511.36l-2-9.31a69.82,69.82,0,0,1,2-36.61l8.72-11h3.69l12.55-15s6.27-1.38,7.49,3.36-6.12,12.86-6.12,12.86l-3.37,14.09,4.44,13.75,2.76,1.26s2.73-23.43,2.43-28.17l7.67-21a101.61,101.61,0,0,0,5.52-10.41c1.38-3.51,8.1-6.58,11.32,0a9.29,9.29,0,0,1,0,7.66c-1.84,4.29-3.36,7.65-3.36,7.65s-2.76,18.07-3.22,18.53.62,27.25.62,27.25l2.29,1.23,2.76-25.27,6.72-23.43s.47-11.48,8.43-9.48a6.23,6.23,0,0,1,5.66,4.14c1.84,4.27-2.3,31.52-2.3,31.52l-.15,28.48,1.53,22.09,4.9-14.68s1.84-21.45,15.52-22.25c0,0,4.08-.42,4.7,2.45s-2.67,8.36-2.67,13.88c0,3.87.22,8.26.33,10.52a8.39,8.39,0,0,1-.36,3c-1.27,4.27-4.94,16.73-6.46,23.59-1.83,8.37-17.49,33.52-17.49,33.52s-13.77,14.7-20.81,22.35c-3.55,3.86-10,20.39-15.48,35.84"></path><path class="cls-15" d="M260.05,487a8.74,8.74,0,0,1-2.06,8.24"></path><path class="cls-15" d="M236.7,507.24c2-3.08,3.93-7.31,3.39-10.94-1-7.11-4.28-15.29-2.82-22.32l2.79-13.48"></path><path class="cls-15" d="M294.43,440.08a14.25,14.25,0,0,1,7.22,0c0-.67.05-1.34.08-2"></path><path class="cls-15" d="M275.42,431a4.62,4.62,0,0,0,7.31-3.87"></path><path class="cls-15" d="M327.75,481.3a8.9,8.9,0,0,0-6.65,9.17l3.55,1.06"></path><path class="cls-15" d="M281.15,483.07c.16,2.43-.14,8.24,0,10.66"></path><path class="cls-15" d="M283.82,486.44q-.45,6-.88,11.93c0-.5.05-1,.07-1.52"></path><path class="cls-15" d="M305.91,520a19.86,19.86,0,0,1-1.36,13.12"></path><path class="cls-15" d="M269.21,499.13c-3.16,3.46-2.7,11.76-.47,16.33"></path><path class="cls-15" d="M292.53,504.84a16.23,16.23,0,0,1-3.86,10.62"></path><path class="cls-15" d="M246.21,500.78a14.79,14.79,0,0,0,2.16,10.09"></path><path class="cls-15" d="M232.78,511.59a12.3,12.3,0,0,0,2.23,7.73"></path><path class="cls-15" d="M251.19,444.84a4.62,4.62,0,0,1,5.07.81c.59-.79,1.19-1.57,1.79-2.36"></path><path class="cls-15" d="M266.05,455.47a6,6,0,0,1,7.65,1.3"></path><path class="cls-15" d="M289.25,462.71a9.71,9.71,0,0,1,8.23.17"></path><path class="cls-15" d="M237.62,474.86a7.86,7.86,0,0,1,7.59-3.77"></path><path class="cls-15" d="M227.91,488.71a4.12,4.12,0,0,1,3.44-3.86"></path></g><g id="Coffee_-_copie" data-name="Coffee - copie"><circle class="cls-15" cx="600.99" cy="324.64" r="60.01"></circle><path class="cls-7" d="M668.93,326.21c-12.8,21-17.35,18.16-61,39.06-22.15,10.62-43.56-23.5-29.08-58.53.71-1.71,7-10.35,7-10.35a32,32,0,0,1,55.86-13.2,34.49,34.49,0,0,1,30.66-7.33c.51,1.48,1,2.93,1.45,4.34.18.55.36,1.09.52,1.64q.83,2.54,1.55,5.1c1,3.24,1.84,6.5,2.67,9.78-4.83-1.34-9.68-1.37-14.25.86-3.2,1.56-5.88,4.14-9.21,5.41s-7.93.55-9.21-2.78c1.61,6.69,8.63,4.69,15.37,6C671.67,308.28,674.31,317.38,668.93,326.21Z"></path><path class="cls-17" d="M649.21,315.87s10.75-1.45,15.85-.69a9.79,9.79,0,0,1,6.18,3.54,3.46,3.46,0,0,1,.74,1.92l.58,8.39a3.45,3.45,0,0,1-.93,2.61c-2.09,2.18-8.42,6.16-27.15,7.59C618.14,341.25,649.21,315.87,649.21,315.87Z"></path><path class="cls-2" d="M641.37,294.17a40.11,40.11,0,0,1,8.79,25.52c0,10-11.59,44.18-41.26,48.34-31.4,4.4-56.64-22.47-51.25-54.81C561.38,290.85,616.16,262.84,641.37,294.17Z"></path><ellipse class="cls-1" cx="603" cy="317.44" rx="45.57" ry="43.13"></ellipse><ellipse class="cls-8" cx="602.9" cy="319.69" rx="37.41" ry="35.41"></ellipse><path class="cls-18" d="M648.56,317.44c0-23.82-20.4-43.13-45.56-43.13s-45.57,19.31-45.57,43.13"></path><path class="cls-18" d="M636.54,346.63a41.77,41.77,0,0,0,12-29.19"></path><path class="cls-18" d="M571.08,348.21A46.76,46.76,0,0,0,603,360.56a47.41,47.41,0,0,0,21.14-4.91"></path><path class="cls-18" d="M564.5,340.53c.6.89,1.23,1.75,1.89,2.6"></path><path class="cls-18" d="M557.43,317.44a41.16,41.16,0,0,0,4.34,18.4"></path><path class="cls-18" d="M669.86,329.24s-8.12-5.68-21.3-.53"></path><path class="cls-18" d="M662.87,333.19c-3.11.92-8.32,2-16.85,2.64"></path><path class="cls-18" d="M667.09,331.39a7.49,7.49,0,0,1-2,1.05"></path><path class="cls-1" d="M674.31,281.84c-.16-.55-.34-1.09-.52-1.64-2.76-8.57-6.33-18-10.65-27.91-.8-1.84-1.64-3.71-2.48-5.59l-1,.09c-4.16.42-8.53.94-12,3.3s-5.45,7.34-3.24,10.89,7.86,5.47,7,9.48c-9.29,5.23-20.61,4.62-30.93,7.25a50.57,50.57,0,0,0-17.25,8.14s0,0,0,0a55.11,55.11,0,0,0-4.69,3.93,19.81,19.81,0,0,0-1.91,2.06s0,0,0,0a7,7,0,0,0-1.64,3.68c-.36,3.86,3.16,6.5,6.91,8.18a.84.84,0,0,1-.06,1.56,21.59,21.59,0,0,0-6.76,3.91s0,0,0,0a1.68,1.68,0,0,0,1.4,2.87,5.16,5.16,0,0,1,.58-.06,10.83,10.83,0,0,1,4.37.52c2.22.78,3.77,2.29,3.93,4.14.23,2.94-3.12,5.59-7.46,5.92-1.06.1-.25,1.36,1.3,1.62a23.12,23.12,0,0,0,9.27-.75c3.63-.87,7.51-2.13,9.57-5.24a6.54,6.54,0,0,0,.87-4.6c-.36-2.15-1.71-4-3.85-4.23a127.68,127.68,0,0,0,19.86-4h0l2-.63a19.24,19.24,0,0,0,5.6-2.44,7.94,7.94,0,0,0,2.45-2.7c1.5-2.91-.63-7.51-3.84-6.9,9.34-3.67,19.21-5.81,28.65-9.18C671.33,283.06,672.84,282.48,674.31,281.84Z"></path></g><g id="Monitor_-_copie" data-name="Monitor - copie"><path class="cls-5" d="M602.73,156.6C594,164.37,584,171,573.92,176.93c-52.72,31.18-112.27,49.86-172.85,59s-122.26,8.83-183.31,3.81c-12-1-24.17-2.2-35.19-7-9.34-4.11-17.81-11.26-21.78-20.52C174,197.1,186.3,181.86,200,167.49q4.89-5.16,10-10.12c2.9-2.77,5.84-5.49,8.89-8.16,3.49-3.07,7.08-6.06,10.85-9,5.14-4,10.55-7.83,16.35-11.49,1.41-.92,2.82-1.8,4.24-2.67,144.37-89.72,250.63-60.43,321.52,0,5.34,4.53,10.49,9.27,15.43,14.16,3,2.91,5.92,5.92,8.75,9,.31.32.6.66.91,1Q599.91,153.39,602.73,156.6Z"></path><path class="cls-19" d="M608.43,142.2l-485.72,2.22,7.35-11a19,19,0,0,1,15.84-8.47H585.41a19.05,19.05,0,0,1,14.84,7.1Z"></path><rect class="cls-8" x="297.97" y="215.01" width="125.51" height="125.51" rx="34.15"></rect><path class="cls-19" d="M320.79,288.37v17.84a10.14,10.14,0,0,0,10.13,10.14h61.2a10.16,10.16,0,0,0,10.14-10.07c.07-8,.5-17.91.5-17.91Z"></path><path class="cls-8" d="M544.78,294.33H186.85a9.16,9.16,0,0,1-8.54-5.84L123.1,146.8a5.66,5.66,0,0,1,5.27-7.71H603.26a5.65,5.65,0,0,1,5.27,7.71L553.32,288.49A9.16,9.16,0,0,1,544.78,294.33Z"></path><polygon class="cls-9" points="547.44 281.98 183.34 281.98 133.24 148.07 597.3 148.07 547.44 281.98"></polygon><rect class="cls-5" x="321.18" y="294.13" width="81.17" height="5.56"></rect><path class="cls-20" d="M494.25,276.23H237.14c-1.41,0-2.76-.64-3-1.44L197.56,158.6c-.41-1.3.73-2.36,2.55-2.36H531.28c1.82,0,3,1.06,2.55,2.36L497.26,274.79C497,275.59,495.66,276.23,494.25,276.23Z"></path><polygon class="cls-19" points="493.3 273.6 238.09 273.6 207.01 171.5 524.38 171.5 493.3 273.6"></polygon><path class="cls-1" d="M274.72,196.85H226.4c-1.19,0-2,.64-1.75,1.43a2.66,2.66,0,0,0,2.56,1.43h48c1.19,0,2-.64,1.9-1.43S275.91,196.85,274.72,196.85Z"></path><path class="cls-1" d="M276.34,205.67H235.25c-1.18,0-2,.62-1.75,1.38a2.56,2.56,0,0,0,2.49,1.38h40.85c1.17,0,2-.61,1.87-1.38S277.51,205.67,276.34,205.67Z"></path><path class="cls-21" d="M277.9,214.18H231.27c-1.15,0-1.91.6-1.7,1.34a2.56,2.56,0,0,0,2.45,1.33h46.37c1.14,0,2-.6,1.83-1.33S279.05,214.18,277.9,214.18Z"></path><path class="cls-1" d="M279.41,222.4H252c-1.13,0-1.91.58-1.73,1.29s1.23,1.29,2.35,1.29h27.24c1.12,0,1.93-.58,1.81-1.29S280.54,222.4,279.41,222.4Z"></path><path class="cls-1" d="M280.86,230.35H235.81c-1.11,0-1.85.56-1.66,1.24a2.45,2.45,0,0,0,2.36,1.25h44.81c1.11,0,1.9-.56,1.78-1.25S282,230.35,280.86,230.35Z"></path><path class="cls-1" d="M282.27,238H245.89c-1.09,0-1.83.55-1.66,1.21s1.21,1.2,2.3,1.2h36.18c1.09,0,1.88-.53,1.76-1.2S283.37,238,282.27,238Z"></path><path class="cls-1" d="M283.63,245.45H247.85c-1.08,0-1.81.53-1.64,1.17s1.18,1.16,2.25,1.16h35.6c1.07,0,1.85-.52,1.73-1.16S284.71,245.45,283.63,245.45Z"></path><path class="cls-1" d="M285,252.64h-39c-1.06,0-1.78.51-1.61,1.13s1.17,1.13,2.22,1.13h38.85c1.05,0,1.81-.51,1.7-1.13S286,252.64,285,252.64Z"></path><path class="cls-21" d="M286.23,259.6H261c-1,0-1.77.49-1.62,1.1s1.11,1.09,2.15,1.09h25.09c1,0,1.79-.49,1.68-1.09S287.27,259.6,286.23,259.6Z"></path><path class="cls-21" d="M273,187.7H237c-1.21,0-2,.67-1.81,1.49a2.62,2.62,0,0,0,2.57,1.48h35.8c1.2,0,2.06-.66,1.92-1.48A2.42,2.42,0,0,0,273,187.7Z"></path><path class="cls-1" d="M271.3,178.21H221.17c-1.24,0-2,.7-1.8,1.55a2.76,2.76,0,0,0,2.66,1.53h49.83c1.24,0,2.11-.68,2-1.53A2.47,2.47,0,0,0,271.3,178.21Z"></path><path class="cls-1" d="M287.47,266.35H245.92c-1,0-1.72.47-1.55,1.06s1.13,1.06,2.15,1.06h41.34c1,0,1.76-.48,1.66-1.06S288.49,266.35,287.47,266.35Z"></path><polygon class="cls-21" points="291.69 200.07 301.06 200.07 300.59 196.49 291.15 196.49 291.69 200.07"></polygon><polygon class="cls-21" points="293 208.77 302.2 208.77 301.75 205.32 292.48 205.32 293 208.77"></polygon><polygon class="cls-21" points="294.26 217.18 303.31 217.18 302.87 213.85 293.76 213.85 294.26 217.18"></polygon><polygon class="cls-21" points="295.48 225.3 304.37 225.3 303.95 222.08 295 222.08 295.48 225.3"></polygon><polygon class="cls-21" points="296.66 233.14 305.4 233.14 304.99 230.03 296.19 230.03 296.66 233.14"></polygon><polygon class="cls-21" points="297.8 240.73 306.4 240.73 306 237.72 297.35 237.72 297.8 240.73"></polygon><polygon class="cls-21" points="298.9 248.07 307.36 248.07 306.98 245.16 298.46 245.16 298.9 248.07"></polygon><polygon class="cls-21" points="299.97 255.18 308.29 255.18 307.92 252.36 299.54 252.36 299.97 255.18"></polygon><polygon class="cls-21" points="301 262.06 309.19 262.06 308.83 259.33 300.59 259.33 301 262.06"></polygon><polygon class="cls-21" points="290.33 191.04 299.88 191.04 299.39 187.33 289.78 187.33 290.33 191.04"></polygon><polygon class="cls-21" points="288.93 181.68 298.65 181.68 298.14 177.82 288.35 177.82 288.93 181.68"></polygon><polygon class="cls-21" points="302 268.73 310.07 268.73 309.72 266.08 301.61 266.08 302 268.73"></polygon><path class="cls-1" d="M351.38,253.77c0-.62.83-1.13,1.88-1.13H492c1.06,0,1.77.51,1.59,1.13s-1.19,1.13-2.24,1.13h-138C352.27,254.9,351.4,254.39,351.38,253.77Z"></path><path class="cls-1" d="M493.39,247.78H416.58c-1.07,0-1.88-.52-1.81-1.16s1-1.17,2.07-1.17h77.22c1.08,0,1.8.53,1.61,1.17A2.39,2.39,0,0,1,493.39,247.78Z"></path><path class="cls-21" d="M398.35,247.78h-23.9c-1.07,0-1.93-.52-1.92-1.16s.89-1.17,2-1.17h24c1.07,0,1.9.53,1.85,1.17S399.42,247.78,398.35,247.78Z"></path><path class="cls-1" d="M448.22,240.43H339.86c-1.09,0-2-.54-2.05-1.2s.81-1.21,1.91-1.21H448.66c1.09,0,1.88.55,1.75,1.21S449.3,240.43,448.22,240.43Z"></path><path class="cls-21" d="M317.2,238h7.72c1.1,0,2,.55,2.09,1.21s-.78,1.2-1.87,1.2h-7.69c-1.08,0-2-.54-2.1-1.2S316.1,238,317.2,238Z"></path><path class="cls-1" d="M463.89,231.59c-.15.69-1.16,1.24-2.27,1.24H359.51c-1.11,0-2-.55-2-1.24s.88-1.24,2-1.24H462.14C463.25,230.35,464,230.9,463.89,231.59Z"></path><path class="cls-1" d="M316.38,230.35h29c1.11,0,2,.55,2.06,1.24s-.85,1.24-1.95,1.24H316.64c-1.1,0-2.06-.55-2.14-1.24S315.27,230.35,316.38,230.35Z"></path><path class="cls-1" d="M315.53,222.4H426.92c1.13,0,2,.58,1.87,1.29s-1.08,1.29-2.21,1.29H315.81c-1.13,0-2.1-.58-2.18-1.29S314.4,222.4,315.53,222.4Z"></path><path class="cls-1" d="M387.85,216.85c-1.14,0-2.05-.6-2-1.33s1-1.34,2.14-1.34h58.78c1.15,0,2,.6,1.85,1.34s-1.16,1.33-2.3,1.33Z"></path><path class="cls-1" d="M314.66,214.18h50.87c1.15,0,2.08.6,2.08,1.34s-.94,1.33-2.08,1.33H314.94c-1.15,0-2.14-.6-2.22-1.33S313.5,214.18,314.66,214.18Z"></path><path class="cls-1" d="M504.69,208.43h-140c-1.16,0-2.11-.61-2.11-1.38s.94-1.38,2.11-1.38H505.48c1.17,0,1.94.62,1.72,1.38A2.62,2.62,0,0,1,504.69,208.43Z"></path><path class="cls-1" d="M507.19,199.71H384c-1.18,0-2.12-.64-2.1-1.43s1-1.43,2.21-1.43H508c1.19,0,2,.64,1.74,1.43A2.68,2.68,0,0,1,507.19,199.71Z"></path><path class="cls-21" d="M509.78,190.67H484c-1.2,0-2-.66-1.84-1.48a2.56,2.56,0,0,1,2.54-1.49h25.95c1.22,0,2,.67,1.77,1.49A2.73,2.73,0,0,1,509.78,190.67Z"></path><path class="cls-1" d="M465.93,190.67H371.2c-1.21,0-2.19-.66-2.18-1.48s1-1.49,2.21-1.49h95.3c1.21,0,2.06.67,1.89,1.49A2.47,2.47,0,0,1,465.93,190.67Z"></path><path class="cls-1" d="M319.5,259.6H407c1,0,1.84.49,1.78,1.1s-.95,1.09-2,1.09h-87c-1,0-1.93-.49-2-1.09S318.46,259.6,319.5,259.6Z"></path><path class="cls-1" d="M320.22,266.35H454.63c1,0,1.76.47,1.63,1.06s-1.05,1.06-2.07,1.06H320.44c-1,0-1.9-.48-2-1.06S319.19,266.35,320.22,266.35Z"></path><path class="cls-1" d="M461.23,181.29H392.8c-1.23,0-2.19-.68-2.15-1.53s1.08-1.55,2.32-1.55h68.84c1.24,0,2.11.7,1.94,1.55A2.47,2.47,0,0,1,461.23,181.29Z"></path><path class="cls-21" d="M373.39,181.29H311.15c-1.23,0-2.31-.68-2.4-1.53s.83-1.55,2.07-1.55h62.62c1.24,0,2.23.7,2.21,1.55S374.62,181.29,373.39,181.29Z"></path><path class="cls-21" d="M426.4,259.6c1,0,1.81.49,1.72,1.1s-1,1.09-2,1.09h-6.76c-1,0-1.82-.49-1.75-1.09s1-1.1,2-1.1Z"></path><path class="cls-21" d="M343.41,253.77c0,.62-.8,1.13-1.85,1.13h-9.21c-1.06,0-2-.51-2-1.13s.77-1.13,1.82-1.13h9.26C342.49,252.64,343.38,253.15,343.41,253.77Z"></path><path class="cls-21" d="M454.54,223.69c-.13.71-1.15,1.29-2.28,1.29H441.49c-1.12,0-1.94-.58-1.83-1.29s1.12-1.29,2.25-1.29h10.83C453.87,222.4,454.68,223,454.54,223.69Z"></path><path class="cls-21" d="M488.15,230.35c1.11,0,1.86.55,1.67,1.24s-1.23,1.24-2.33,1.24H478.9c-1.11,0-1.87-.55-1.7-1.24s1.2-1.24,2.31-1.24Z"></path><path class="cls-21" d="M347.71,208.43c-1.16,0-2.13-.61-2.16-1.38s.89-1.38,2.06-1.38h9.14c1.17,0,2.13.62,2.14,1.38s-.92,1.38-2.09,1.38Z"></path><path class="cls-1" d="M223.28,163.85c.71,2.37-.66,4.27-3,4.27a6.42,6.42,0,0,1-5.7-4.27c-.78-2.4.57-4.37,3-4.37A6.4,6.4,0,0,1,223.28,163.85Z"></path><path class="cls-1" d="M235.07,163.92a3.19,3.19,0,0,1-3.19,4.27,6.18,6.18,0,0,1-5.56-4.27,3.19,3.19,0,0,1,3.16-4.37A6.16,6.16,0,0,1,235.07,163.92Z"></path><path class="cls-1" d="M247,163.85a3.3,3.3,0,0,1-3.33,4.27,5.92,5.92,0,0,1-5.42-4.27,3.3,3.3,0,0,1,3.3-4.37A5.91,5.91,0,0,1,247,163.85Z"></path><polygon class="cls-22" points="133.24 148.07 172.25 252.36 219.32 148.07 133.24 148.07"></polygon><polygon class="cls-22" points="199.07 281.98 277.15 148.07 358.89 148.07 243.97 281.98 199.07 281.98"></polygon><polygon class="cls-22" points="394.12 147.41 272.41 281.98 291.15 281.98 417.23 148.07 394.12 147.41"></polygon><polygon class="cls-22" points="418.15 281.98 551.91 148.07 570.78 148.07 432.87 281.98 418.15 281.98"></polygon></g><g id="Code_-_copie" data-name="Code - copie"><path class="cls-2" d="M236.79,340.1H206.25a7.17,7.17,0,0,0-7.18,7.18v14.86a7.17,7.17,0,0,0,7.18,7.18h8L220.28,383l8.53-13.71h8a7.17,7.17,0,0,0,7.18-7.18V347.28A7.17,7.17,0,0,0,236.79,340.1Z"></path><path class="cls-8" d="M217.28,348.6a1.42,1.42,0,0,1,1.48-1.4,1.39,1.39,0,0,1,1.49,1.34,1.42,1.42,0,0,1-1.49,1.45A1.41,1.41,0,0,1,217.28,348.6Zm.31,3h2.33v9.94h-2.33Z"></path><path class="cls-8" d="M225.53,351.11v.6h2.74v1.86h-2.66v8h-2.33v-8h-1.64v-1.86h1.64v-.64a3.21,3.21,0,0,1,3.55-3.44,3.76,3.76,0,0,1,2.11.54l-.66,1.75a2.27,2.27,0,0,0-1.28-.41C226,349.51,225.53,350.05,225.53,351.11Z"></path><path class="cls-2" d="M329.77,342.18H299.23a7.17,7.17,0,0,0-7.18,7.18v14.86a7.17,7.17,0,0,0,7.18,7.18h8l6.05,13.71,8.53-13.71h8a7.17,7.17,0,0,0,7.18-7.18V349.36A7.17,7.17,0,0,0,329.77,342.18Z"></path><path class="cls-8" d="M305.65,359.42h-7.8a3,3,0,0,0,3.22,2.39,3.59,3.59,0,0,0,2.7-1.08l1.24,1.43a5,5,0,0,1-4,1.62c-3.33,0-5.48-2.14-5.48-5.1a4.94,4.94,0,0,1,5.13-5.08,4.85,4.85,0,0,1,5,5.14C305.68,358.92,305.66,359.2,305.65,359.42Zm-7.82-1.54h5.64a2.71,2.71,0,0,0-2.81-2.42A2.75,2.75,0,0,0,297.83,357.88Z"></path><path class="cls-8" d="M307.91,349.84h2.32v13.81h-2.32Z"></path><path class="cls-8" d="M312.15,362.66l.89-1.77a6.63,6.63,0,0,0,3.46,1c1.47,0,2.08-.41,2.08-1.1,0-1.9-6.14-.11-6.14-4.07,0-1.88,1.7-3.11,4.38-3.11a7.92,7.92,0,0,1,3.72.86l-.9,1.76a5.49,5.49,0,0,0-2.84-.74c-1.42,0-2.09.47-2.09,1.12,0,2,6.14.22,6.14,4.11,0,1.86-1.71,3.07-4.5,3.07A7.88,7.88,0,0,1,312.15,362.66Z"></path><path class="cls-8" d="M332.16,359.42h-7.8a3,3,0,0,0,3.22,2.39,3.59,3.59,0,0,0,2.7-1.08l1.24,1.43a5,5,0,0,1-4,1.62c-3.33,0-5.49-2.14-5.49-5.1a4.94,4.94,0,0,1,5.13-5.08,4.85,4.85,0,0,1,5,5.14C332.19,358.92,332.18,359.2,332.16,359.42Zm-7.82-1.54H330a2.71,2.71,0,0,0-2.81-2.42A2.76,2.76,0,0,0,324.34,357.88Z"></path><path class="cls-2" d="M419.92,341.3H389.37a7.18,7.18,0,0,0-7.18,7.18v14.86a7.19,7.19,0,0,0,7.18,7.18h8l6,13.71,8.53-13.71h8a7.19,7.19,0,0,0,7.18-7.18V348.48A7.18,7.18,0,0,0,419.92,341.3Z"></path><path class="cls-8" d="M396.38,352.31v.6h2.73v1.86h-2.66v8h-2.32v-8h-1.64v-1.86h1.64v-.64a3.21,3.21,0,0,1,3.55-3.44,3.73,3.73,0,0,1,2.1.54l-.65,1.75a2.29,2.29,0,0,0-1.28-.41C396.88,350.71,396.38,351.25,396.38,352.31Z"></path><path class="cls-8" d="M399.7,357.8a5.3,5.3,0,1,1,5.29,5.1A5,5,0,0,1,399.7,357.8Zm8.24,0a2.95,2.95,0,1,0-2.95,3.1A2.89,2.89,0,0,0,407.94,357.8Z"></path><path class="cls-8" d="M418.26,352.72v2.21a3.61,3.61,0,0,0-.54-.05c-1.77,0-2.88,1-2.88,3.07v4.82h-2.33v-9.94h2.22v1.45A3.9,3.9,0,0,1,418.26,352.72Z"></path><path class="cls-2" d="M508.76,340.1H478.21a7.18,7.18,0,0,0-7.18,7.18v14.86a7.18,7.18,0,0,0,7.18,7.18h8L492.25,383l8.52-13.71h8a7.18,7.18,0,0,0,7.18-7.18V347.28A7.18,7.18,0,0,0,508.76,340.1Z"></path><path class="cls-8" d="M489.52,351.14h8.57V353h-8.57Zm0,4.5h8.57v1.86h-8.57Z"></path><path class="cls-2" d="M283.35,322.9H252.81a7.17,7.17,0,0,0-7.18,7.18v14.86a7.17,7.17,0,0,0,7.18,7.18h8l6,13.71,8.53-13.71h8a7.17,7.17,0,0,0,7.18-7.18V330.08A7.17,7.17,0,0,0,283.35,322.9Z"></path><path class="cls-8" d="M260.89,329.08h4.45v1.86h-2.12v13.69h2.12v1.86h-4.45Z"></path><path class="cls-8" d="M271.1,346.49v-1.86h2.1V330.94h-2.1v-1.86h4.43v17.41Z"></path><path class="cls-2" d="M374.16,321.38H343.62a7.18,7.18,0,0,0-7.18,7.18v14.86a7.17,7.17,0,0,0,7.18,7.18h8l6,13.71,8.53-13.71h8a7.17,7.17,0,0,0,7.18-7.18V328.56A7.18,7.18,0,0,0,374.16,321.38Z"></path><path class="cls-8" d="M352.68,336.2c.74.24,1.09.75,1.09,1.9v3.53a1.25,1.25,0,0,0,1.38,1.42h.39v1.86h-.93c-2.1,0-3.16-1.06-3.16-3V338a.77.77,0,0,0-.84-.89H350v-1.9h.61a.77.77,0,0,0,.84-.89v-3.83c0-2,1.06-3,3.16-3h.93v1.86h-.39a1.25,1.25,0,0,0-1.38,1.41v3.53C353.77,335.46,353.42,336,352.68,336.2Z"></path><path class="cls-8" d="M366.86,335.25v1.9h-.63c-.5,0-.82.28-.82.89v3.84c0,2-1.08,3-3.18,3h-.93v-1.86h.39a1.26,1.26,0,0,0,1.4-1.42V338.1c0-1.15.33-1.66,1.08-1.9-.75-.24-1.08-.74-1.08-1.9v-3.53a1.26,1.26,0,0,0-1.4-1.41h-.39V327.5h.93c2.1,0,3.18,1.06,3.18,3v3.83c0,.61.32.89.82.89Z"></path><path class="cls-2" d="M464,318.37H433.47a7.17,7.17,0,0,0-7.18,7.18v14.86a7.17,7.17,0,0,0,7.18,7.18h8l6.05,13.71L456,347.59h8a7.17,7.17,0,0,0,7.18-7.18V325.55A7.17,7.17,0,0,0,464,318.37Z"></path><path class="cls-8" d="M447.53,329.37a1.53,1.53,0,1,1,3.05,0,1.53,1.53,0,1,1-3.05,0Zm3.05,7.09a4.13,4.13,0,0,1-.43,1.6l-.95,2.62h-1.5l.74-2.85a1.42,1.42,0,0,1-.87-1.37,1.51,1.51,0,1,1,3,0Z"></path><path class="cls-2" d="M344.59,578.18h30.55a7.19,7.19,0,0,0,7.18-7.18V556.14a7.18,7.18,0,0,0-7.18-7.18h-8l-2.34-13.71L352.58,549h-8a7.18,7.18,0,0,0-7.18,7.18V571A7.19,7.19,0,0,0,344.59,578.18Z"></path><path class="cls-8" d="M355.33,560.51l-6.42,2.4,6.42,2.4v1.94l-8.57-3.33v-2l8.57-3.33Z"></path><path class="cls-8" d="M362.1,553.76h2.08L358,571.29H356Z"></path><path class="cls-8" d="M373.2,561.91v2l-8.58,3.33v-1.94l6.42-2.4-6.42-2.4v-1.93Z"></path><path class="cls-2" d="M150.4,470H181a7.19,7.19,0,0,0,7.18-7.18V447.92a7.18,7.18,0,0,0-7.18-7.18h-8L174.71,427l-16.32,13.72h-8a7.18,7.18,0,0,0-7.18,7.18v14.86A7.19,7.19,0,0,0,150.4,470Z"></path><path class="cls-8" d="M159.46,460.53A1.44,1.44,0,0,1,161,459.1a1.42,1.42,0,0,1,1.47,1.43A1.44,1.44,0,0,1,161,462,1.45,1.45,0,0,1,159.46,460.53Zm.13-11.7h2.75l-.46,8.71H160Z"></path><path class="cls-8" d="M164.74,452.16h8.58V454h-8.58Zm0,4.5h8.58v1.86h-8.58Z"></path></g><g id="Mouse_-_copie" data-name="Mouse - copie"><path class="cls-1" d="M639.49,453.11a103.37,103.37,0,0,1-1.41,17.18c-4.19,25-17.36,43.33-33,43.33a20.49,20.49,0,0,1-4.14-.43c-17-3.61-30.21-29.13-30.21-60.08,0-33.42,15.39-45.24,34.35-45.24S639.49,419.69,639.49,453.11Z"></path><g class="cls-23"><path class="cls-3" d="M627,453.49c1.28,17.92-1.8,35.94-7,53.14C633,496,639,479.31,644.35,463.45c3.91-11.51,7.87-23.38,7.16-35.52s-7.21-24.76-18.6-29a24.74,24.74,0,0,0-17.55.29c-9.54,3.82-4.32,6.93-.31,13.79C622.22,425.26,626,439.36,627,453.49Z"></path><path class="cls-21" d="M627,453.49c1.28,17.92-1.8,35.94-7,53.14C633,496,639,479.31,644.35,463.45c3.91-11.51,7.87-23.38,7.16-35.52s-7.21-24.76-18.6-29a24.74,24.74,0,0,0-17.55.29c-9.54,3.82-4.32,6.93-.31,13.79C622.22,425.26,626,439.36,627,453.49Z"></path></g><path class="cls-15" d="M639.49,453.11a103.37,103.37,0,0,1-1.41,17.18c-4.19,25-17.36,43.33-33,43.33a20.49,20.49,0,0,1-4.14-.43c-17-3.61-30.21-29.13-30.21-60.08,0-33.42,15.39-45.24,34.35-45.24S639.49,419.69,639.49,453.11Z"></path><path class="cls-15" d="M623.59,483.85A59.26,59.26,0,0,1,612.32,505"></path><path class="cls-15" d="M624.68,479.64c-.18.82-.38,1.64-.59,2.44"></path><path class="cls-15" d="M624.59,453a59,59,0,0,1,.69,23.57"></path><path class="cls-15" d="M570.78,453.11s39.05-15.44,68.71,0"></path><path class="cls-15" d="M605.13,407.87s3.91,14.48,4.37,38"></path><path class="cls-2" d="M610.58,425.48c.51,4.5-.27,8.34-1.74,8.57s-3.05-3.23-3.55-7.73.27-8.34,1.74-8.57S610.08,421,610.58,425.48Z"></path><path class="cls-15" d="M589.73,525.2H543.94a11.23,11.23,0,0,1-11.13-9.71,7.91,7.91,0,0,1-.13-1.55v-108a8.22,8.22,0,0,1,.13-1.56,11.22,11.22,0,0,1,11.13-9.71H673.85a11.12,11.12,0,0,1,5.4,1.39"></path></g></svg> 